<svg data-name="Layer 1" version="1.1" viewBox="0 0 536.68 594.28" xmlns="http://www.w3.org/2000/svg">
 <defs>
  <style>.cls-1{fill:#1c2834;}.cls-2{fill:#010101;}.cls-3{fill:#c72026;}.cls-4{fill:#45515d;}.cls-5{fill:#fff;}</style>
 </defs>
 <title>compass 3</title>
 <path class="cls-1" transform="translate(-30.16 -39.98)" d="M563,262A266,266,0,0,0,344.81,43.86C160.5,13.06,3.23,170.32,34,354.63A266,266,0,0,0,252.19,572.78C436.5,603.59,593.77,446.33,563,262ZM252.48,571.17A264.39,264.39,0,0,1,35.66,354.35C5,171.17,161.33,14.86,344.52,45.48A264.38,264.38,0,0,1,561.34,262.3C592,445.48,435.66,601.78,252.48,571.17Z"/>
 <path class="cls-1" transform="translate(-30.16 -39.98)" d="M298.51,90.86c-120.1,0-217.46,97.36-217.46,217.46s97.36,217.47,217.46,217.47S516,428.42,516,308.32,418.61,90.86,298.51,90.86Zm0,433.28c-119.19,0-215.82-96.6-215.82-215.82S179.29,92.5,298.51,92.5s215.82,96.63,215.82,215.82S417.71,524.14,298.51,524.14Z"/>
 <path class="cls-2" transform="translate(-30.16 -39.98)" d="m298.51 45.73c-145 0-262.59 117.56-262.59 262.59s117.57 262.6 262.59 262.6 262.6-117.57 262.6-262.6-117.57-262.59-262.6-262.59zm0 484.57c-122.59 0-222-99.38-222-222s99.39-222 222-222 222 99.39 222 222-99.4 222-222 222z"/>
 <path class="cls-1" transform="translate(-30.16 -39.98)" d="M329.77,508.24l-2.92,7.6a.45.45,0,0,0,.26.58.44.44,0,0,0,.23,0l8.05-1.27a.45.45,0,0,0,.38-.51.49.49,0,0,0-.1-.22l-5.13-6.33a.46.46,0,0,0-.77.13Z"/>
 <path class="cls-1" transform="translate(-30.16 -39.98)" d="M360.68,500.9l-1.7,8a.44.44,0,0,0,.58.51l7.75-2.51a.45.45,0,0,0,.29-.57.41.41,0,0,0-.13-.19l-6.06-5.46a.44.44,0,0,0-.63,0,.42.42,0,0,0-.1.2Z"/>
 <path class="cls-1" transform="translate(-30.16 -39.98)" d="M390,488.78l-.45,8.14a.44.44,0,0,0,.4.49.44.44,0,0,0,.25,0l7.26-3.71a.45.45,0,0,0,.2-.6.44.44,0,0,0-.16-.17l-6.84-4.44a.45.45,0,0,0-.61.17.3.3,0,0,0-.05.16Z"/>
 <path class="cls-1" transform="translate(-30.16 -39.98)" d="M417.12,472.23l.85,8.11a.46.46,0,0,0,.5.4.43.43,0,0,0,.21-.09l6.6-4.78a.46.46,0,0,0,.1-.63.52.52,0,0,0-.18-.15l-7.45-3.31a.43.43,0,0,0-.59.22.37.37,0,0,0,0,.23Z"/>
 <path class="cls-1" transform="translate(-30.16 -39.98)" d="M462,427.56l3.31,7.44a.44.44,0,0,0,.59.23.38.38,0,0,0,.18-.15l4.79-6.59a.45.45,0,0,0-.1-.63.49.49,0,0,0-.21-.08l-8.11-.86a.45.45,0,0,0-.49.4.41.41,0,0,0,0,.24Z"/>
 <path class="cls-1" transform="translate(-30.16 -39.98)" d="M478.61,400.54l4.44,6.84a.44.44,0,0,0,.62.13.44.44,0,0,0,.16-.17l3.7-7.26a.44.44,0,0,0-.19-.6.47.47,0,0,0-.26-.05l-8.14.45a.44.44,0,0,0-.38.5.49.49,0,0,0,.05.16Z"/>
 <path class="cls-1" transform="translate(-30.16 -39.98)" d="M490.82,371.2l5.46,6.06a.44.44,0,0,0,.63,0,.39.39,0,0,0,.13-.2l2.52-7.75a.45.45,0,0,0-.29-.56.37.37,0,0,0-.23,0l-8,1.69a.45.45,0,0,0-.34.53.42.42,0,0,0,.1.2Z"/>
 <path class="cls-1" transform="translate(-30.16 -39.98)" d="M498.29,340.34l6.34,5.14a.45.45,0,0,0,.63-.07.4.4,0,0,0,.09-.21l1.28-8.05a.45.45,0,0,0-.37-.52.5.5,0,0,0-.24,0l-7.6,2.92a.44.44,0,0,0-.26.57A.36.36,0,0,0,498.29,340.34Z"/>
 <path class="cls-1" transform="translate(-30.16 -39.98)" d="M498.43,277.05,506,280a.45.45,0,0,0,.58-.25.37.37,0,0,0,0-.23l-1.27-8.05a.45.45,0,0,0-.51-.38.47.47,0,0,0-.22.09l-6.33,5.14a.45.45,0,0,0-.06.63A.36.36,0,0,0,498.43,277.05Z"/>
 <path class="cls-1" transform="translate(-30.16 -39.98)" d="M491.09,246.16l8,1.69a.45.45,0,0,0,.53-.34.44.44,0,0,0,0-.23l-2.51-7.75a.45.45,0,0,0-.57-.29.39.39,0,0,0-.19.12l-5.47,6.07a.44.44,0,0,0,.05.63.54.54,0,0,0,.2.1Z"/>
 <path class="cls-1" transform="translate(-30.16 -39.98)" d="M479,216.81l8.14.44a.44.44,0,0,0,.49-.39.46.46,0,0,0,0-.26l-3.7-7.26a.45.45,0,0,0-.61-.19.41.41,0,0,0-.17.15l-4.44,6.84a.46.46,0,0,0,.33.67Z"/>
 <path class="cls-1" transform="translate(-30.16 -39.98)" d="M462.42,189.7l8.11-.85a.45.45,0,0,0,.4-.49.58.58,0,0,0-.08-.22l-4.79-6.59a.46.46,0,0,0-.63-.11.47.47,0,0,0-.15.19L462,189.07a.44.44,0,0,0,.45.63Z"/>
 <path class="cls-1" transform="translate(-30.16 -39.98)" d="M417.75,144.85l7.44-3.31a.45.45,0,0,0,.23-.59.4.4,0,0,0-.15-.19L418.68,136a.46.46,0,0,0-.63.1.58.58,0,0,0-.08.22l-.86,8.1a.46.46,0,0,0,.4.5.51.51,0,0,0,.24,0Z"/>
 <path class="cls-1" transform="translate(-30.16 -39.98)" d="M390.73,128.21l6.84-4.44a.44.44,0,0,0,.13-.62.44.44,0,0,0-.17-.16l-7.26-3.7a.45.45,0,0,0-.6.2.37.37,0,0,0-.05.23l.45,8.14a.45.45,0,0,0,.48.41A.55.55,0,0,0,390.73,128.21Z"/>
 <path class="cls-1" transform="translate(-30.16 -39.98)" d="M361.39,116l6.06-5.45a.44.44,0,0,0,0-.63.39.39,0,0,0-.2-.13l-7.75-2.52a.44.44,0,0,0-.56.29.36.36,0,0,0,0,.23l1.69,8a.45.45,0,0,0,.53.35.43.43,0,0,0,.2-.11Z"/>
 <path class="cls-1" transform="translate(-30.16 -39.98)" d="M330.54,108.53l5.13-6.34a.43.43,0,0,0-.07-.62.35.35,0,0,0-.21-.1l-8.05-1.27a.43.43,0,0,0-.51.37.37.37,0,0,0,0,.23l2.92,7.6a.45.45,0,0,0,.57.27A.56.56,0,0,0,330.54,108.53Z"/>
 <path class="cls-1" transform="translate(-30.16 -39.98)" d="M267.25,108.41l2.92-7.6a.45.45,0,0,0-.25-.58.5.5,0,0,0-.24,0l-8.05,1.28a.44.44,0,0,0-.37.51.4.4,0,0,0,.09.21l5.14,6.34a.45.45,0,0,0,.63.06A.43.43,0,0,0,267.25,108.41Z"/>
 <path class="cls-1" transform="translate(-30.16 -39.98)" d="M236.35,115.76l1.69-8a.45.45,0,0,0-.57-.52l-7.75,2.52a.44.44,0,0,0-.29.56.37.37,0,0,0,.12.2l6.06,5.45a.46.46,0,0,0,.64,0,.51.51,0,0,0,.1-.21Z"/>
 <path class="cls-1" transform="translate(-30.16 -39.98)" d="M207,127.86l.45-8.14a.46.46,0,0,0-.42-.48.59.59,0,0,0-.23.05l-7.26,3.7a.46.46,0,0,0-.2.61.44.44,0,0,0,.16.17l6.83,4.44A.44.44,0,0,0,207,128a.43.43,0,0,0,.06-.18Z"/>
 <path class="cls-1" transform="translate(-30.16 -39.98)" d="M179.91,144.39l-.86-8.1a.44.44,0,0,0-.49-.4.49.49,0,0,0-.21.08l-6.6,4.79a.45.45,0,0,0-.1.63.54.54,0,0,0,.18.15l7.45,3.31a.44.44,0,0,0,.59-.22.47.47,0,0,0,0-.24Z"/>
 <path class="cls-1" transform="translate(-30.16 -39.98)" d="M135.05,189.07l-3.31-7.44a.45.45,0,0,0-.59-.23.4.4,0,0,0-.19.15l-4.79,6.59a.46.46,0,0,0,.1.63.58.58,0,0,0,.22.08l8.1.85a.45.45,0,0,0,.5-.39A.51.51,0,0,0,135.05,189.07Z"/>
 <path class="cls-1" transform="translate(-30.16 -39.98)" d="M118.41,216.12,114,209.28a.44.44,0,0,0-.62-.13.41.41,0,0,0-.15.17l-3.7,7.26a.44.44,0,0,0,.19.6.45.45,0,0,0,.25,0l8.14-.45a.43.43,0,0,0,.33-.66Z"/>
 <path class="cls-1" transform="translate(-30.16 -39.98)" d="M106.2,245.43l-5.45-6.06a.45.45,0,0,0-.63,0,.44.44,0,0,0-.13.2l-2.52,7.76a.45.45,0,0,0,.29.56.59.59,0,0,0,.23,0l8-1.7a.45.45,0,0,0,.35-.53.56.56,0,0,0-.11-.2Z"/>
 <path class="cls-1" transform="translate(-30.16 -39.98)" d="M98.74,276.29l-6.34-5.14a.46.46,0,0,0-.63.07.55.55,0,0,0-.1.22l-1.27,8.05a.44.44,0,0,0,.6.48l7.61-2.92a.44.44,0,0,0,.26-.57A.43.43,0,0,0,98.74,276.29Z"/>
 <path class="cls-1" transform="translate(-30.16 -39.98)" d="M98.6,339.58,91,336.66a.45.45,0,0,0-.58.26.45.45,0,0,0,0,.23l1.28,8.05a.44.44,0,0,0,.51.38.41.41,0,0,0,.21-.1l6.34-5.13a.46.46,0,0,0-.13-.77Z"/>
 <path class="cls-1" transform="translate(-30.16 -39.98)" d="M105.94,370.49l-8-1.7a.45.45,0,0,0-.53.35.6.6,0,0,0,0,.23l2.52,7.75a.44.44,0,0,0,.56.29.39.39,0,0,0,.2-.13l5.46-6.06a.45.45,0,0,0,0-.63.42.42,0,0,0-.2-.1Z"/>
 <path class="cls-1" transform="translate(-30.16 -39.98)" d="M118.06,399.83l-8.14-.45a.45.45,0,0,0-.5.39.47.47,0,0,0,0,.26l3.7,7.26a.45.45,0,0,0,.6.2.55.55,0,0,0,.18-.16l4.44-6.84a.45.45,0,0,0-.17-.61.33.33,0,0,0-.16-.05Z"/>
 <path class="cls-1" transform="translate(-30.16 -39.98)" d="M134.6,426.93l-8.11.85a.45.45,0,0,0-.39.5.54.54,0,0,0,.08.21l4.79,6.6a.46.46,0,0,0,.63.1.65.65,0,0,0,.15-.18l3.31-7.45a.45.45,0,0,0-.22-.59.4.4,0,0,0-.24,0Z"/>
 <path class="cls-1" transform="translate(-30.16 -39.98)" d="M179.28,471.79l-7.44,3.31a.46.46,0,0,0-.24.59.54.54,0,0,0,.15.18l6.6,4.79a.45.45,0,0,0,.63-.1.49.49,0,0,0,.08-.21l.85-8.11a.45.45,0,0,0-.39-.49.41.41,0,0,0-.24,0Z"/>
 <path class="cls-1" transform="translate(-30.16 -39.98)" d="M206.29,488.42l-6.83,4.44a.46.46,0,0,0-.14.62.55.55,0,0,0,.18.16l7.26,3.7a.44.44,0,0,0,.6-.19.47.47,0,0,0,0-.26l-.45-8.14a.44.44,0,0,0-.5-.38.55.55,0,0,0-.17.05Z"/>
 <path class="cls-1" transform="translate(-30.16 -39.98)" d="M235.63,500.63l-6.06,5.46a.44.44,0,0,0,0,.63.5.5,0,0,0,.19.13l7.76,2.52a.44.44,0,0,0,.57-.52l-1.69-8a.45.45,0,0,0-.53-.34.51.51,0,0,0-.21.1Z"/>
 <path class="cls-1" transform="translate(-30.16 -39.98)" d="M266.49,508.1l-5.13,6.34a.45.45,0,0,0,.06.63.43.43,0,0,0,.22.09l8.05,1.28a.45.45,0,0,0,.51-.37.49.49,0,0,0,0-.24l-2.92-7.6a.45.45,0,0,0-.58-.26A.41.41,0,0,0,266.49,508.1Z"/>
 <path class="cls-1" transform="translate(-30.16 -39.98)" d="M437.33,447.73l3.79,14.12a.45.45,0,0,0,.75.2l10.34-10.34a.44.44,0,0,0,0-.63.37.37,0,0,0-.2-.12l-14.13-3.78a.45.45,0,0,0-.55.31.49.49,0,0,0,0,.24Z"/>
 <path class="cls-1" transform="translate(-30.16 -39.98)" d="M159.11,447.14,145,450.93a.45.45,0,0,0-.2.75L155.13,462a.44.44,0,0,0,.63,0,.37.37,0,0,0,.12-.2l3.78-14.13a.45.45,0,0,0-.31-.55.49.49,0,0,0-.24,0Z"/>
 <path class="cls-1" transform="translate(-30.16 -39.98)" d="M437.92,169.48,452,165.7a.46.46,0,0,0,.32-.55.37.37,0,0,0-.12-.2L441.9,154.61a.44.44,0,0,0-.75.2l-3.78,14.12a.44.44,0,0,0,.31.55A.49.49,0,0,0,437.92,169.48Z"/>
 <path class="cls-1" transform="translate(-30.16 -39.98)" d="M159.69,168.93l-3.78-14.12a.44.44,0,0,0-.55-.32.41.41,0,0,0-.2.12L144.82,165a.44.44,0,0,0,.2.75l14.12,3.78a.44.44,0,0,0,.55-.31.49.49,0,0,0,0-.24Z"/>
 <path class="cls-1" transform="translate(-30.16 -39.98)" d="M298.11,498l-11.35,19.68a.44.44,0,0,0,.38.67h22.72a.45.45,0,0,0,.44-.45.4.4,0,0,0-.06-.22L298.89,498a.45.45,0,0,0-.61-.17.46.46,0,0,0-.17.17Z"/>
 <path class="cls-1" transform="translate(-30.16 -39.98)" d="M488.23,308.73l19.68,11.35a.45.45,0,0,0,.61-.17.4.4,0,0,0,.06-.22V297a.44.44,0,0,0-.45-.44.4.4,0,0,0-.22.06L488.23,308a.44.44,0,0,0-.17.61A.46.46,0,0,0,488.23,308.73Z"/>
 <path class="cls-1" transform="translate(-30.16 -39.98)" d="M108.8,308.73,89.12,320.08a.45.45,0,0,1-.61-.17.4.4,0,0,1-.06-.22V297a.44.44,0,0,1,.45-.44.43.43,0,0,1,.22.06L108.8,308a.45.45,0,0,1,.17.61A.46.46,0,0,1,108.8,308.73Z"/>
 <path class="cls-3" transform="translate(-30.16 -39.98)" d="M298.11,118.59,286.76,98.91a.45.45,0,0,1,.16-.61.46.46,0,0,1,.22-.06h22.72a.45.45,0,0,1,.44.45.46.46,0,0,1-.06.22l-11.35,19.68a.44.44,0,0,1-.61.16.44.44,0,0,1-.17-.16Z"/>
 <path class="cls-4" transform="translate(-30.16 -39.98)" d="M168.82,329.7a.82.82,0,0,1-.13-1.63L428.05,287a.82.82,0,0,1,.26,1.62L169,329.69Z"/>
 <path class="cls-4" transform="translate(-30.16 -39.98)" d="M173.65,349.74a.82.82,0,0,1-.81-.84.8.8,0,0,1,.55-.76L423.13,267a.81.81,0,0,1,1,.59.82.82,0,0,1-.49,1L173.9,349.7a1.09,1.09,0,0,1-.25,0Z"/>
 <path class="cls-4" transform="translate(-30.16 -39.98)" d="M181.52,368.74a.81.81,0,0,1-.81-.83.82.82,0,0,1,.44-.72L415.12,248a.82.82,0,0,1,.74,1.47h0l-234,119.21A.81.81,0,0,1,181.52,368.74Z"/>
 <path class="cls-4" transform="translate(-30.16 -39.98)" d="M192.3,386.32a.84.84,0,0,1-.67-.34.82.82,0,0,1,.18-1.14h0L404.25,230.49a.83.83,0,0,1,1.15.17.84.84,0,0,1-.17,1.16h0L192.78,386.18a.82.82,0,0,1-.48.14Z"/>
 <path class="cls-4" transform="translate(-30.16 -39.98)" d="M221.32,415.35a.82.82,0,0,1-.82-.82.84.84,0,0,1,.16-.49L375,201.61a.82.82,0,0,1,1.15-.18.83.83,0,0,1,.19,1.15L222,415A.83.83,0,0,1,221.32,415.35Z"/>
 <path class="cls-4" transform="translate(-30.16 -39.98)" d="M238.9,426.12a.78.78,0,0,1-.37-.09.82.82,0,0,1-.37-1.1L357.38,191a.82.82,0,1,1,1.46.74l-119.21,234a.81.81,0,0,1-.73.45Z"/>
 <path class="cls-4" transform="translate(-30.16 -39.98)" d="M258,434a1.17,1.17,0,0,1-.26,0,.83.83,0,0,1-.52-1L338.33,183.2a.83.83,0,0,1,1.07-.46.83.83,0,0,1,.49,1L258.72,433.45A.83.83,0,0,1,258,434Z"/>
 <path class="cls-4" transform="translate(-30.16 -39.98)" d="M278,438.83h-.13a.84.84,0,0,1-.69-.94l41.08-259.37a.83.83,0,0,1,1-.63.81.81,0,0,1,.64.89L278.79,438.14a.82.82,0,0,1-.8.69Z"/>
 <path class="cls-4" transform="translate(-30.16 -39.98)" d="M319,438.83a.84.84,0,0,1-.81-.7L277.15,178.77a.83.83,0,0,1,.64-1,.82.82,0,0,1,1,.63s0,.06,0,.09l41.08,259.37a.83.83,0,0,1-.69.94Z"/>
 <path class="cls-4" transform="translate(-30.16 -39.98)" d="M339.08,434a.82.82,0,0,1-.78-.57L257.15,183.71a.82.82,0,0,1,1.56-.51l81.15,249.74a.82.82,0,0,1-.53,1A.72.72,0,0,1,339.08,434Z"/>
 <path class="cls-4" transform="translate(-30.16 -39.98)" d="M358.13,426.12a.82.82,0,0,1-.73-.44l-119.22-234a.82.82,0,0,1,.36-1.1.8.8,0,0,1,1.1.36h0l119.22,234a.81.81,0,0,1-.35,1.1.85.85,0,0,1-.38.09Z"/>
 <path class="cls-4" transform="translate(-30.16 -39.98)" d="M375.71,415.35A.84.84,0,0,1,375,415L220.71,202.57a.83.83,0,1,1,1.34-1h0L376.41,414a.82.82,0,0,1-.19,1.14.85.85,0,0,1-.51.17Z"/>
 <path class="cls-4" transform="translate(-30.16 -39.98)" d="M404.73,386.32a.84.84,0,0,1-.48-.16L191.81,231.81a.82.82,0,0,1-.18-1.15.83.83,0,0,1,1.15-.19L405.21,384.82a.81.81,0,0,1,.18,1.14h0a.8.8,0,0,1-.66.36Z"/>
 <path class="cls-4" transform="translate(-30.16 -39.98)" d="M415.51,368.74a.78.78,0,0,1-.37-.09l-234-119.21a.83.83,0,1,1,.75-1.47l234,119.22a.83.83,0,0,1,.37,1.1h0a.82.82,0,0,1-.73.44Z"/>
 <path class="cls-4" transform="translate(-30.16 -39.98)" d="M423.38,349.74a1,1,0,0,1-.25,0L173.38,268.54a.82.82,0,0,1-.45-1.07.81.81,0,0,1,1-.49l249.75,81.16a.83.83,0,0,1-.26,1.61Z"/>
 <path class="cls-4" transform="translate(-30.16 -39.98)" d="M428.21,329.7h-.13L168.72,288.62a.81.81,0,0,1-.63-1A.82.82,0,0,1,169,287l259.37,41.08a.82.82,0,0,1-.13,1.63Z"/>
 <path class="cls-4" transform="translate(-30.16 -39.98)" d="M205.8,402a.82.82,0,0,1-.94-.67.81.81,0,0,1,.23-.71L390.77,214.9a.84.84,0,0,1,1.17-.05.83.83,0,0,1,0,1.17l0,0L206.25,401.75a.77.77,0,0,1-.45.22Z"/>
 <path class="cls-4" transform="translate(-30.16 -39.98)" d="M298.65,440.44h-.13a.82.82,0,0,1-.82-.82h0V177a.81.81,0,0,1,.82-.81.82.82,0,0,1,.82.81v262.6a.83.83,0,0,1-.69.81Z"/>
 <path class="cls-4" transform="translate(-30.16 -39.98)" d="M391.49,402a.78.78,0,0,1-.7-.22L205.1,216.06a.82.82,0,0,1,0-1.16.84.84,0,0,1,1.17-.05l0,.05L391.94,400.58a.81.81,0,0,1,0,1.16h0A.77.77,0,0,1,391.49,402Z"/>
 <path class="cls-4" transform="translate(-30.16 -39.98)" d="M430,309.13H167.23a.83.83,0,0,1-.76-.88.82.82,0,0,1,.76-.76h262.6a.81.81,0,0,1,.12,1.62Z"/>
 <path class="cls-4" transform="translate(-30.16 -39.98)" d="m205.8 310.43l-18 0.56c0 0.55 0 1.09 0.05 1.64l18.05-0.56c-0.07-0.55-0.08-1.07-0.1-1.64z"/>
 <path class="cls-4" transform="translate(-30.16 -39.98)" d="m205.85 304.59l-18-0.56c0 0.54-0.05 1.09-0.06 1.63l18 0.57c0.02-0.55 0.03-1.1 0.06-1.64z"/>
 <path class="cls-4" transform="translate(-30.16 -39.98)" d="m205.94 313.33l-18 1.13c0 0.55 0.07 1.1 0.1 1.64l17.96-1.1c0-0.58 0-1.13-0.06-1.67z"/>
 <path class="cls-4" transform="translate(-30.16 -39.98)" d="m206.61 295.89l-17.89-2.27c-0.07 0.54-0.14 1.09-0.2 1.64l17.89 2.25c0.06-0.51 0.13-1.08 0.2-1.62z"/>
 <path class="cls-4" transform="translate(-30.16 -39.98)" d="m207.05 293l-17.83-2.83c-0.09 0.54-0.18 1.08-0.26 1.62l17.84 2.83c0.08-0.54 0.2-1.06 0.25-1.62z"/>
 <path class="cls-4" transform="translate(-30.16 -39.98)" d="m206.29 298.78l-18-1.7c-0.06 0.55-0.1 1.09-0.15 1.64l18 1.7c0.05-0.55 0.1-1.1 0.15-1.64z"/>
 <path class="cls-4" transform="translate(-30.16 -39.98)" d="m206 301.68l-18-1.13c0 0.54-0.08 1.09-0.11 1.64l18 1.13c0.11-0.54 0.11-1.09 0.11-1.64z"/>
 <path class="cls-4" transform="translate(-30.16 -39.98)" d="M207.28,324.87l-17.74,3.39c.1.53.2,1.07.31,1.61l17.74-3.38c-.12-.54-.23-1.08-.31-1.62Z"/>
 <path class="cls-4" transform="translate(-30.16 -39.98)" d="M290.73,197.82l1.13,18,1.64-.11-1.13-18-1.64.11Z"/>
 <path class="cls-4" transform="translate(-30.16 -39.98)" d="M206.12,316.24l-18,1.7c.05.54.09,1.09.15,1.64l18-1.7c-.06-.55-.1-1.1-.14-1.64Z"/>
 <path class="cls-4" transform="translate(-30.16 -39.98)" d="m206.43 319.15l-17.89 2.26c0.06 0.54 0.13 1.09 0.2 1.63l17.89-2.27c-0.07-0.54-0.14-1.08-0.2-1.62z"/>
 <path class="cls-4" transform="translate(-30.16 -39.98)" d="M206.79,322,189,324.83c.08.55.17,1.09.26,1.62L207,323.63c-.09-.56-.17-1.08-.25-1.62Z"/>
 <path class="cls-4" transform="translate(-30.16 -39.98)" d="m294.22 197.63l0.56 18h1.64l-0.56-18h-1.64z"/>
 <path class="cls-4" transform="translate(-30.16 -39.98)" d="M313.81,216.86,316.63,199l-1.62-.26-2.82,17.83,1.62.26Z"/>
 <path class="cls-4" transform="translate(-30.16 -39.98)" d="m311 216.43l2.26-17.89-1.63-0.2-2.27 17.91c0.5 0.04 1.05 0.1 1.64 0.18z"/>
 <path class="cls-4" transform="translate(-30.16 -39.98)" d="M309.74,198.11,308.1,198l-1.7,18c.55,0,1.1.09,1.64.15Z"/>
 <path class="cls-4" transform="translate(-30.16 -39.98)" d="M319.53,218l3.94-17.62-1.6-.35-3.94,17.62Z"/>
 <path class="cls-4" transform="translate(-30.16 -39.98)" d="M322.4,218.7l4.47-17.49-1.59-.41-4.48,17.49Z"/>
 <path class="cls-4" transform="translate(-30.16 -39.98)" d="m297.71 197.55v18h1.64v-18h-1.64z"/>
 <path class="cls-4" transform="translate(-30.16 -39.98)" d="m287.29 198.11l1.7 18c0.54-0.06 1.08-0.1 1.63-0.15l-1.7-18c-0.54 0.04-1.09 0.09-1.63 0.15z"/>
 <path class="cls-4" transform="translate(-30.16 -39.98)" d="m205.8 308.32v-0.82h-18.05v1.65h18.05c0.01-0.28 0-0.55 0-0.83z"/>
 <path class="cls-4" transform="translate(-30.16 -39.98)" d="M306.3,197.82l-1.64-.11-1.13,18,1.63.1Z"/>
 <path class="cls-4" transform="translate(-30.16 -39.98)" d="m300.62 215.62h1.64l0.56-18h-1.64z"/>
 <path class="cls-4" transform="translate(-30.16 -39.98)" d="m207.59 290.14l-17.74-3.38c-0.1 0.53-0.21 1.07-0.3 1.61l17.75 3.41c0.08-0.57 0.18-1.1 0.29-1.64z"/>
 <path class="cls-4" transform="translate(-30.16 -39.98)" d="m316.72 217.38l3.38-17.73-1.61-0.31-3.39 17.75c0.54 0.08 1.08 0.19 1.62 0.29z"/>
 <path class="cls-4" transform="translate(-30.16 -39.98)" d="m244.67 232.82l-10.62-14.61-1.34 1 10.62 14.61z"/>
 <path class="cls-4" transform="translate(-30.16 -39.98)" d="M242.34,234.55l-11.06-14.26c-.45.33-.9.66-1.3,1L241,235.56Z"/>
 <path class="cls-4" transform="translate(-30.16 -39.98)" d="M240.06,236.35l-11.51-13.9c-.44.35-.84.7-1.26,1.05l11.5,13.91Z"/>
 <path class="cls-4" transform="translate(-30.16 -39.98)" d="m237.82 238.22l-11.93-13.53-1.23 1.09 11.94 13.54z"/>
 <path class="cls-4" transform="translate(-30.16 -39.98)" d="M225.75,250.84l-14.27-11.06c-.34.44-.67.86-1,1.3l14.26,11.06Z"/>
 <path class="cls-4" transform="translate(-30.16 -39.98)" d="m247.08 231.17l-10.15-14.94-1.34 0.93 10.15 14.93c0.44-0.31 0.88-0.62 1.34-0.92z"/>
 <path class="cls-4" transform="translate(-30.16 -39.98)" d="M235.63,240.17,223.28,227l-1.21,1.12,12.36,13.16,1.2-1.12Z"/>
 <path class="cls-4" transform="translate(-30.16 -39.98)" d="m229.51 246.39-13.51-11.94l-1.09 1.23 13.54 11.94c0.32-0.42 0.69-0.82 1.06-1.23z"/>
 <path class="cls-4" transform="translate(-30.16 -39.98)" d="m227.58 248.59l-13.91-11.51-1 1.26 13.91 11.51z"/>
 <path class="cls-4" transform="translate(-30.16 -39.98)" d="m231.47 244.25l-13.16-12.36-1.12 1.2 13.16 12.36z"/>
 <path class="cls-4" transform="translate(-30.16 -39.98)" d="M252,228.09l-9.19-15.55c-.47.28-.95.55-1.41.84l9.19,15.54Z"/>
 <path class="cls-4" transform="translate(-30.16 -39.98)" d="m233.53 242.18l-12.76-12.77-1.17 1.17 12.77 12.76 1.16-1.16z"/>
 <path class="cls-4" transform="translate(-30.16 -39.98)" d="m287.69 216.22l-2.26-17.92c-0.54 0.07-1.09 0.13-1.63 0.21l2.26 17.88c0.54-0.04 1.09-0.1 1.63-0.17z"/>
 <path class="cls-4" transform="translate(-30.16 -39.98)" d="M279.1,217.64,275.16,200l-1.6.35L277.51,218Z"/>
 <path class="cls-4" transform="translate(-30.16 -39.98)" d="M276.24,218.29l-4.47-17.49-1.59.41,4.47,17.49Z"/>
 <path class="cls-4" transform="translate(-30.16 -39.98)" d="M273.42,219l-5-17.34-1.57.45,5,17.34Z"/>
 <path class="cls-4" transform="translate(-30.16 -39.98)" d="m270.65 219.86l-5.58-17.17-1.56 0.51 5.58 17.17c0.52-0.15 1.04-0.37 1.56-0.51z"/>
 <path class="cls-4" transform="translate(-30.16 -39.98)" d="M284.83,216.6,282,198.75l-1.62.26,2.82,17.83c.56-.07,1.08-.15,1.63-.24Z"/>
 <path class="cls-4" transform="translate(-30.16 -39.98)" d="m282 217.09l-3.39-17.74-1.61 0.31 3.38 17.74c0.49-0.12 1.02-0.23 1.62-0.31z"/>
 <path class="cls-4" transform="translate(-30.16 -39.98)" d="M254.55,226.66l-8.7-15.83c-.48.26-1,.52-1.43.79l8.69,15.83Z"/>
 <path class="cls-4" transform="translate(-30.16 -39.98)" d="M259.78,224.06l-7.68-16.34c-.5.23-1,.45-1.49.7l7.67,16.33Z"/>
 <path class="cls-4" transform="translate(-30.16 -39.98)" d="m257.14 225.32-8.14-16.1l-1.47 0.75 8.2 16.1c0.44-0.26 0.93-0.48 1.41-0.75z"/>
 <path class="cls-4" transform="translate(-30.16 -39.98)" d="m262.42 222.88l-7.15-16.57-1.51 0.65 7.15 16.55c0.51-0.2 1.01-0.42 1.51-0.63z"/>
 <path class="cls-4" transform="translate(-30.16 -39.98)" d="m265.15 221.79-6.65-16.79l-1.53 0.61 6.67 16.78c0.49-0.2 1-0.39 1.51-0.6z"/>
 <path class="cls-4" transform="translate(-30.16 -39.98)" d="m267.88 220.79l-6.12-17-1.54 0.55 6.12 17c0.5-0.19 1.02-0.34 1.54-0.55z"/>
 <path class="cls-4" transform="translate(-30.16 -39.98)" d="M249.5,229.61l-9.68-15.25c-.44.3-.93.59-1.38.9l9.67,15.24a16.25,16.25,0,0,1,1.39-.89Z"/>
 <path class="cls-4" transform="translate(-30.16 -39.98)" d="m387.78 283.24l17.34-5c-0.14-0.53-0.3-1.05-0.44-1.58l-17.35 5c0.16 0.52 0.3 1.05 0.45 1.58z"/>
 <path class="cls-4" transform="translate(-30.16 -39.98)" d="m389.21 288.9 17.62-3.9c-0.11-0.54-0.23-1.08-0.35-1.61l-17.61 3.95c0.13 0.48 0.23 1.02 0.34 1.56z"/>
 <path class="cls-4" transform="translate(-30.16 -39.98)" d="m388.54 286.06 17.46-4.48c-0.13-0.53-0.27-1.06-0.4-1.59l-17.5 4.47c0.17 0.54 0.3 1.05 0.44 1.6z"/>
 <path class="cls-4" transform="translate(-30.16 -39.98)" d="m325.17 219.49l5-17.34c-0.52-0.16-1-0.31-1.57-0.45l-5 17.35c0.52 0.13 1.05 0.27 1.57 0.44z"/>
 <path class="cls-4" transform="translate(-30.16 -39.98)" d="m391 314.94l18 1.13c0-0.54 0.08-1.08 0.1-1.63l-18-1.13c-0.02 0.54-0.1 1.08-0.1 1.63z"/>
 <path class="cls-4" transform="translate(-30.16 -39.98)" d="m390.73 317.85l18 1.7c0.05-0.55 0.1-1.09 0.14-1.64l-18-1.7c-0.03 0.55-0.08 1.1-0.14 1.64z"/>
 <path class="cls-4" transform="translate(-30.16 -39.98)" d="m382.77 269.58l16.37-7.69c-0.24-0.49-0.45-1-0.7-1.49l-16.36 7.67c0.24 0.51 0.46 1.01 0.69 1.51z"/>
 <path class="cls-4" transform="translate(-30.16 -39.98)" d="M387,280.44l17.17-5.58-.51-1.56-17.17,5.58Z"/>
 <path class="cls-4" transform="translate(-30.16 -39.98)" d="m390.42 320.76 17.91 2.24c0.07-0.54 0.14-1.09 0.2-1.63l-17.91-2.26c-0.06 0.56-0.13 1.11-0.2 1.65z"/>
 <path class="cls-4" transform="translate(-30.16 -39.98)" d="m384 272.24l16.57-7.16c-0.22-0.5-0.45-1-0.66-1.5l-16.55 7.15c0.18 0.51 0.4 1.01 0.64 1.51z"/>
 <path class="cls-4" transform="translate(-30.16 -39.98)" d="m385.05 275l16.78-6.65c-0.2-0.51-0.4-1-0.61-1.53l-16.78 6.67c0.21 0.44 0.42 0.94 0.61 1.51z"/>
 <path class="cls-4" transform="translate(-30.16 -39.98)" d="m386 277.68l17-6.12c-0.18-0.51-0.36-1-0.55-1.54l-17 6.12c0.22 0.51 0.41 1.02 0.55 1.54z"/>
 <path class="cls-4" transform="translate(-30.16 -39.98)" d="M389.44,326.53l17.73,3.38c.11-.54.21-1.08.31-1.61l-17.74-3.39c-.09.54-.2,1.08-.3,1.62Z"/>
 <path class="cls-4" transform="translate(-30.16 -39.98)" d="m409.29 307.5h-18.05v1.64h18.05v-0.82c0-0.27 0.01-0.54 0-0.82z"/>
 <path class="cls-4" transform="translate(-30.16 -39.98)" d="M391.18,312.08l18,.56c0-.54,0-1.09.06-1.63l-18-.57c0,.54,0,1.09-.05,1.64Z"/>
 <path class="cls-4" transform="translate(-30.16 -39.98)" d="m232.37 373.31-12.77 12.76l1.16 1.16 12.77-12.77z"/>
 <path class="cls-4" transform="translate(-30.16 -39.98)" d="M391.22,306.23l18-.57c0-.54,0-1.09-.06-1.63l-18,.56c0,.54,0,1.09.05,1.64Z"/>
 <path class="cls-4" transform="translate(-30.16 -39.98)" d="M364.66,243.34l12.77-12.76-1.17-1.17L363.5,242.18c.39.4.76.77,1.16,1.16Z"/>
 <path class="cls-4" transform="translate(-30.16 -39.98)" d="M381.52,267l16.1-8.2c-.25-.49-.49-1-.75-1.46l-16.1,8.2C381,266,381.28,266.46,381.52,267Z"/>
 <path class="cls-4" transform="translate(-30.16 -39.98)" d="M390,323.62l17.83,2.82c.09-.54.18-1.08.26-1.62L390.23,322c-.08.54-.17,1.06-.26,1.62Z"/>
 <path class="cls-4" transform="translate(-30.16 -39.98)" d="M390.24,294.63l17.84-2.83c-.08-.54-.17-1.08-.26-1.62L390,293c.09.55.17,1.07.25,1.62Z"/>
 <path class="cls-4" transform="translate(-30.16 -39.98)" d="m390.91 300.42l18-1.7c-0.05-0.55-0.09-1.09-0.15-1.64l-18 1.7c0.06 0.54 0.11 1.09 0.15 1.64z"/>
 <path class="cls-4" transform="translate(-30.16 -39.98)" d="m390.6 297.51l17.91-2.26c-0.06-0.54-0.13-1.09-0.2-1.63l-17.91 2.27c0.07 0.54 0.14 1.11 0.2 1.62z"/>
 <path class="cls-4" transform="translate(-30.16 -39.98)" d="m391.09 303.32l18-1.13c0-0.55-0.06-1.1-0.1-1.64l-18 1.13c0.01 0.55 0.08 1.1 0.1 1.64z"/>
 <path class="cls-4" transform="translate(-30.16 -39.98)" d="m389.75 291.78l17.74-3.39c-0.1-0.54-0.21-1.07-0.31-1.61l-17.74 3.38c0.12 0.52 0.23 1.05 0.31 1.62z"/>
 <path class="cls-4" transform="translate(-30.16 -39.98)" d="M346.41,228.92l9.19-15.54c-.44-.29-.94-.56-1.41-.84L345,228.09Z"/>
 <path class="cls-4" transform="translate(-30.16 -39.98)" d="M348.87,230.47l9.68-15.25c-.45-.3-.93-.59-1.39-.89l-9.67,15.28c.46.27.92.56,1.38.86Z"/>
 <path class="cls-4" transform="translate(-30.16 -39.98)" d="m343.91 227.45l8.72-15.82-1.44-0.79-8.7 15.82c0.51 0.27 0.94 0.53 1.42 0.79z"/>
 <path class="cls-4" transform="translate(-30.16 -39.98)" d="M380.18,264.36,396,255.67c-.26-.49-.53-1-.8-1.44l-15.82,8.7Z"/>
 <path class="cls-4" transform="translate(-30.16 -39.98)" d="m353.7 233.79l10.61-14.61c-0.44-0.32-0.89-0.65-1.34-1l-10.61 14.6c0.46 0.36 0.9 0.68 1.34 1.01z"/>
 <path class="cls-4" transform="translate(-30.16 -39.98)" d="m356 235.56l11.07-14.27-1.3-1-11.07 14.26z"/>
 <path class="cls-4" transform="translate(-30.16 -39.98)" d="m341.36 226.06l8.2-16.1-1.46-0.74-8.2 16.1c0.49 0.27 0.98 0.49 1.46 0.74z"/>
 <path class="cls-4" transform="translate(-30.16 -39.98)" d="m327.94 220.37l5.58-17.17q-0.78-0.27-1.56-0.51l-5.58 17.17c0.52 0.14 1.04 0.36 1.56 0.51z"/>
 <path class="cls-4" transform="translate(-30.16 -39.98)" d="M330.71,221.34l6.12-17-1.54-.55-6.12,17Z"/>
 <path class="cls-4" transform="translate(-30.16 -39.98)" d="m336.08 223.53 7.16-16.53l-1.51-0.65-7.16 16.57c0.53 0.17 1.03 0.39 1.51 0.61z"/>
 <path class="cls-4" transform="translate(-30.16 -39.98)" d="m333.4 222.4l6.65-16.79-1.53-0.61-6.65 16.79c0.53 0.21 1.04 0.4 1.53 0.61z"/>
 <path class="cls-4" transform="translate(-30.16 -39.98)" d="M338.76,224.75l7.69-16.33c-.49-.24-1-.45-1.49-.7l-7.69,16.34,1.49.69Z"/>
 <path class="cls-4" transform="translate(-30.16 -39.98)" d="m351.33 232.09l10.15-14.93-1.34-0.93-10.14 14.94c0.43 0.3 0.88 0.61 1.33 0.92z"/>
 <path class="cls-4" transform="translate(-30.16 -39.98)" d="m375.66 256.89l14.93-10.15-0.92-1.34-14.93 10.15c0.31 0.45 0.62 0.88 0.92 1.34z"/>
 <path class="cls-4" transform="translate(-30.16 -39.98)" d="M374,254.48l14.6-10.61c-.31-.45-.64-.9-1-1.34L373,253.14Z"/>
 <path class="cls-4" transform="translate(-30.16 -39.98)" d="m377.23 259.33l15.24-9.67c-0.29-0.45-0.58-0.93-0.89-1.39l-15.25 9.67c0.31 0.46 0.61 0.92 0.9 1.39z"/>
 <path class="cls-4" transform="translate(-30.16 -39.98)" d="m372.31 252.14l14.26-11.06c-0.33-0.45-0.66-0.87-1-1.3l-14.27 11.06c0.32 0.43 0.7 0.86 1.01 1.3z"/>
 <path class="cls-4" transform="translate(-30.16 -39.98)" d="m378.75 261.81l15.54-9.19c-0.27-0.47-0.55-1-0.83-1.41l-15.55 9.19c0.29 0.48 0.56 0.96 0.84 1.41z"/>
 <path class="cls-4" transform="translate(-30.16 -39.98)" d="M358.26,237.41l11.51-13.92-1.26-1L357,236.35Z"/>
 <path class="cls-4" transform="translate(-30.16 -39.98)" d="m360.46 239.32l11.93-13.55-1.22-1.09-11.94 13.54z"/>
 <path class="cls-4" transform="translate(-30.16 -39.98)" d="m362.6 241.29 12.4-13.16c-0.39-0.38-0.8-0.75-1.2-1.12l-12.4 13.16c0.41 0.37 0.81 0.74 1.2 1.12z"/>
 <path class="cls-4" transform="translate(-30.16 -39.98)" d="m368.59 247.62l13.54-11.94-1.13-1.23-13.5 11.94c0.37 0.41 0.74 0.81 1.09 1.23z"/>
 <path class="cls-4" transform="translate(-30.16 -39.98)" d="m366.67 245.45l13.16-12.36-1.12-1.2-13.16 12.36z"/>
 <path class="cls-4" transform="translate(-30.16 -39.98)" d="m370.47 249.85l13.91-11.51-1-1.26-13.92 11.51c0.32 0.41 0.66 0.84 1.01 1.26z"/>
 <path class="cls-4" transform="translate(-30.16 -39.98)" d="M294.22,419c.55,0,1.09.05,1.64.06l.56-18c-.54,0-1.09,0-1.64-.06Z"/>
 <path class="cls-4" transform="translate(-30.16 -39.98)" d="M326.38,396.79,332,414l1.57-.51-5.58-17.17Z"/>
 <path class="cls-4" transform="translate(-30.16 -39.98)" d="M329.15,395.85l6.12,17,1.54-.55-6.12-17Z"/>
 <path class="cls-4" transform="translate(-30.16 -39.98)" d="m334.61 393.79l7.15 16.55 1.51-0.66-7.16-16.57c-0.5 0.24-1 0.46-1.5 0.68z"/>
 <path class="cls-4" transform="translate(-30.16 -39.98)" d="m331.88 394.86l6.65 16.78 1.52-0.61-6.67-16.78c-0.48 0.21-0.99 0.42-1.5 0.61z"/>
 <path class="cls-4" transform="translate(-30.16 -39.98)" d="M320.79,398.35l4.47,17.49,1.59-.4-4.47-17.5Z"/>
 <path class="cls-4" transform="translate(-30.16 -39.98)" d="m323.6 397.59l5 17.34 1.58-0.44-5-17.35c-0.52 0.16-1.05 0.3-1.58 0.45z"/>
 <path class="cls-4" transform="translate(-30.16 -39.98)" d="M342.48,390l8.69,15.82c.49-.26,1-.53,1.44-.8l-8.7-15.82Z"/>
 <path class="cls-4" transform="translate(-30.16 -39.98)" d="m347.53 387l9.67 15.24c0.45-0.29 0.93-0.58 1.39-0.89l-9.67-15.25c-0.46 0.35-0.92 0.65-1.39 0.9z"/>
 <path class="cls-4" transform="translate(-30.16 -39.98)" d="m350 385.47l10.14 14.93 1.34-0.92-10.14-14.94c-0.49 0.32-0.93 0.63-1.34 0.93z"/>
 <path class="cls-4" transform="translate(-30.16 -39.98)" d="M337.24,392.58l7.69,16.34c.5-.23,1-.44,1.49-.69l-7.67-16.34Z"/>
 <path class="cls-4" transform="translate(-30.16 -39.98)" d="M317.92,399l3.94,17.62,1.61-.35-4-17.61Z"/>
 <path class="cls-4" transform="translate(-30.16 -39.98)" d="M280.31,399.25,276.93,417l1.61.31L282,399.54c-.57-.08-1.1-.19-1.64-.29Z"/>
 <path class="cls-4" transform="translate(-30.16 -39.98)" d="m345 388.56l9.19 15.54 1.41-0.83-9.19-15.55c-0.41 0.28-0.94 0.56-1.41 0.84z"/>
 <path class="cls-4" transform="translate(-30.16 -39.98)" d="M297.71,401v18.05h1.64V401h-1.64Z"/>
 <path class="cls-4" transform="translate(-30.16 -39.98)" d="M290.73,418.83l1.64.11,1.13-18-1.64-.1Z"/>
 <path class="cls-4" transform="translate(-30.16 -39.98)" d="M287.29,418.52c.54.06,1.09.1,1.63.15l1.7-18-1.63-.14Z"/>
 <path class="cls-4" transform="translate(-30.16 -39.98)" d="M283.22,399.78l-2.82,17.83,1.62.26L284.84,400l-1.62-.26Z"/>
 <path class="cls-4" transform="translate(-30.16 -39.98)" d="M286.08,400.23l-2.26,17.89,1.63.2,2.26-17.89Z"/>
 <path class="cls-4" transform="translate(-30.16 -39.98)" d="M312.2,400.05,315,417.89l1.61-.26-2.82-17.83-1.62.25Z"/>
 <path class="cls-4" transform="translate(-30.16 -39.98)" d="m315.06 399.56l3.39 17.74 1.61-0.31-3.38-17.74c-0.54 0.12-1.08 0.23-1.62 0.31z"/>
 <path class="cls-4" transform="translate(-30.16 -39.98)" d="M309.34,400.41l2.23,17.89,1.63-.2-2.26-17.89-1.6.2Z"/>
 <path class="cls-4" transform="translate(-30.16 -39.98)" d="m303.52 400.9l1.13 18c0.55 0 1.1-0.06 1.64-0.1l-1.13-18c-0.55 0.05-1.1 0.08-1.64 0.1z"/>
 <path class="cls-4" transform="translate(-30.16 -39.98)" d="m306.43 400.72l1.7 18 1.64-0.15-1.7-18c-0.54 0.06-1.07 0.11-1.64 0.15z"/>
 <path class="cls-4" transform="translate(-30.16 -39.98)" d="M300.62,401l.56,18.05c.55,0,1.09,0,1.64-.06l-.56-18Z"/>
 <path class="cls-4" transform="translate(-30.16 -39.98)" d="m339.88 391.33l8.2 16.1c0.49-0.25 1-0.49 1.46-0.75l-8.2-16.1c-0.48 0.26-0.97 0.51-1.46 0.75z"/>
 <path class="cls-4" transform="translate(-30.16 -39.98)" d="M382.1,348.57l16.34,7.69c.24-.49.45-1,.7-1.49l-16.35-7.69Z"/>
 <path class="cls-4" transform="translate(-30.16 -39.98)" d="M380.76,351.17l16.1,8.2.75-1.46-16.1-8.2Z"/>
 <path class="cls-4" transform="translate(-30.16 -39.98)" d="m383.31 345.89l16.55 7.16c0.22-0.5 0.44-1 0.65-1.51l-16.57-7.16c-0.19 0.53-0.41 1.03-0.63 1.51z"/>
 <path class="cls-4" transform="translate(-30.16 -39.98)" d="m377.94 356.22l15.54 9.19c0.28-0.44 0.56-0.94 0.84-1.41l-15.55-9.18c-0.27 0.45-0.55 0.94-0.83 1.4z"/>
 <path class="cls-4" transform="translate(-30.16 -39.98)" d="m352.36 383.82 10.64 14.6l1.34-1-10.64-14.57z"/>
 <path class="cls-4" transform="translate(-30.16 -39.98)" d="M379.37,353.72l15.83,8.72c.26-.48.53-.95.79-1.44l-15.82-8.7c-.27.46-.53.94-.8,1.42Z"/>
 <path class="cls-4" transform="translate(-30.16 -39.98)" d="m387.33 335l17.35 5c0.15-0.52 0.31-1 0.44-1.57l-17.34-5c-0.13 0.5-0.28 1.02-0.45 1.57z"/>
 <path class="cls-4" transform="translate(-30.16 -39.98)" d="m385.5 340.52l17 6.12c0.19-0.51 0.38-1 0.55-1.54l-17-6.12c-0.18 0.5-0.36 1.02-0.55 1.54z"/>
 <path class="cls-4" transform="translate(-30.16 -39.98)" d="m388.14 332.21l17.49 4.47c0.14-0.53 0.27-1.06 0.4-1.59l-17.48-4.48c-0.14 0.54-0.27 1.07-0.41 1.6z"/>
 <path class="cls-4" transform="translate(-30.16 -39.98)" d="m388.85 329.34l17.63 3.94c0.12-0.53 0.23-1.07 0.35-1.6l-17.62-3.94c-0.13 0.55-0.21 1.08-0.36 1.6z"/>
 <path class="cls-4" transform="translate(-30.16 -39.98)" d="M376.38,358.68l15.24,9.68c.3-.45.59-.93.9-1.39l-15.25-9.67Z"/>
 <path class="cls-4" transform="translate(-30.16 -39.98)" d="m386.48 337.75l17.18 5.58 0.51-1.56-17.17-5.58q-0.25 0.81-0.52 1.56z"/>
 <path class="cls-4" transform="translate(-30.16 -39.98)" d="m384.43 343.21l16.79 6.65c0.2-0.51 0.41-1 0.6-1.53l-16.82-6.65c-0.16 0.53-0.37 1.04-0.57 1.53z"/>
 <path class="cls-4" transform="translate(-30.16 -39.98)" d="m363.5 374.47l12.76 12.77 1.16-1.17-12.77-12.76z"/>
 <path class="cls-4" transform="translate(-30.16 -39.98)" d="M359.2,378.4l11.94,13.54,1.22-1.08-11.93-13.55c-.41.37-.82.74-1.23,1.09Z"/>
 <path class="cls-4" transform="translate(-30.16 -39.98)" d="m361.39 376.48l12.36 13.16c0.4-0.37 0.81-0.74 1.2-1.12l-12.36-13.16c-0.39 0.38-0.79 0.75-1.2 1.12z"/>
 <path class="cls-4" transform="translate(-30.16 -39.98)" d="M357,380.28l11.5,13.91c.45-.34.85-.69,1.27-1l-11.51-13.92Z"/>
 <path class="cls-4" transform="translate(-30.16 -39.98)" d="m354.69 382.12l11.06 14.26c0.45-0.33 0.87-0.66 1.3-1l-11.05-14.27c-0.44 0.32-0.88 0.65-1.31 1.01z"/>
 <path class="cls-4" transform="translate(-30.16 -39.98)" d="m373.07 363.51l14.6 10.61c0.33-0.44 0.65-0.89 1-1.34l-14.67-10.61c-0.28 0.46-0.61 0.9-0.93 1.34z"/>
 <path class="cls-4" transform="translate(-30.16 -39.98)" d="M371.28,365.79l14.26,11.07c.34-.45.68-.87,1-1.3l-14.24-11.07c-.36.44-.69.87-1,1.3Z"/>
 <path class="cls-4" transform="translate(-30.16 -39.98)" d="M374.72,361.14l14.93,10.15c.32-.45.63-.9.93-1.34l-14.93-10.18Z"/>
 <path class="cls-4" transform="translate(-30.16 -39.98)" d="m367.52 370.26l13.54 11.94 1.09-1.22-13.54-11.98c-0.36 0.45-0.72 0.86-1.09 1.26z"/>
 <path class="cls-4" transform="translate(-30.16 -39.98)" d="M365.55,372.41l13.17,12.36,1.11-1.2-13.15-12.36c-.38.41-.75.81-1.13,1.2Z"/>
 <path class="cls-4" transform="translate(-30.16 -39.98)" d="M369.44,368.07l13.92,11.51c.35-.42.7-.84,1-1.27l-13.9-11.5Z"/>
 <path class="cls-4" transform="translate(-30.16 -39.98)" d="m214.25 347.05l-16.34 7.69c0.24 0.5 0.45 1 0.7 1.49l16.39-7.69c-0.29-0.49-0.52-0.99-0.75-1.49z"/>
 <path class="cls-4" transform="translate(-30.16 -39.98)" d="M211,339l-17,6.12c.17.51.36,1,.55,1.54l17-6.12C211.35,340,211.17,339.47,211,339Z"/>
 <path class="cls-4" transform="translate(-30.16 -39.98)" d="m209.25 333.41l-17.35 5c0.15 0.53 0.31 1.05 0.45 1.58l17.34-5c-0.15-0.52-0.3-1.05-0.44-1.58z"/>
 <path class="cls-4" transform="translate(-30.16 -39.98)" d="m210.05 336.19l-17.17 5.57c0.16 0.53 0.33 1.05 0.51 1.57l17.17-5.58c-0.15-0.52-0.34-1.04-0.51-1.56z"/>
 <path class="cls-4" transform="translate(-30.16 -39.98)" d="m208.49 330.6-17.49 4.47c0.13 0.53 0.26 1.06 0.4 1.59l17.49-4.47c-0.14-0.53-0.27-1.05-0.4-1.59z"/>
 <path class="cls-4" transform="translate(-30.16 -39.98)" d="m207.81 327.73l-17.62 3.94c0.12 0.54 0.23 1.08 0.35 1.61l17.62-3.95c-0.16-0.52-0.23-1.06-0.35-1.6z"/>
 <path class="cls-4" transform="translate(-30.16 -39.98)" d="m208.17 287.3l-17.62-3.94c-0.12 0.54-0.24 1.07-0.35 1.61l17.62 3.94c0.12-0.55 0.24-1.09 0.35-1.61z"/>
 <path class="cls-4" transform="translate(-30.16 -39.98)" d="m212 341.69l-16.77 6.65c0.2 0.51 0.4 1 0.61 1.52l16.79-6.65c-0.25-0.5-0.44-1.01-0.63-1.52z"/>
 <path class="cls-4" transform="translate(-30.16 -39.98)" d="m208.89 284.46-17.49-4.46c-0.14 0.53-0.28 1.06-0.41 1.59l17.49 4.48c0.14-0.56 0.27-1.07 0.41-1.61z"/>
 <path class="cls-4" transform="translate(-30.16 -39.98)" d="M216.85,352.29,201,361c.26.49.52,1,.79,1.44l15.83-8.7Z"/>
 <path class="cls-4" transform="translate(-30.16 -39.98)" d="m215.51 349.69l-16.1 8.2c0.24 0.49 0.49 1 0.74 1.46l16.1-8.2c-0.25-0.48-0.48-0.97-0.74-1.46z"/>
 <path class="cls-4" transform="translate(-30.16 -39.98)" d="m224 253.16l-14.61-10.62c-0.32 0.45-0.65 0.9-1 1.35l14.61 10.61c0.31-0.5 0.63-0.9 1-1.34z"/>
 <path class="cls-4" transform="translate(-30.16 -39.98)" d="m213.05 344.41l-16.55 7.16c0.21 0.51 0.45 1 0.66 1.51l16.57-7.16c-0.24-0.5-0.47-1-0.68-1.51z"/>
 <path class="cls-4" transform="translate(-30.16 -39.98)" d="m219.09 260.41l-15.55-9.19c-0.28 0.45-0.56 0.94-0.83 1.41l15.54 9.18c0.28-0.45 0.55-0.93 0.84-1.4z"/>
 <path class="cls-4" transform="translate(-30.16 -39.98)" d="M217.65,262.93l-15.82-8.7c-.27.48-.54,1-.8,1.44l15.83,8.69Z"/>
 <path class="cls-4" transform="translate(-30.16 -39.98)" d="m209.69 281.66l-17.34-5c-0.16 0.53-0.31 1.05-0.45 1.58l17.35 5c0.13-0.53 0.27-1.06 0.44-1.58z"/>
 <path class="cls-4" transform="translate(-30.16 -39.98)" d="m216.27 265.49l-16.1-8.2c-0.26 0.49-0.5 1-0.75 1.47l16.1 8.19c0.27-0.49 0.48-0.95 0.75-1.46z"/>
 <path class="cls-4" transform="translate(-30.16 -39.98)" d="m222.31 255.52l-14.94-10.14c-0.31 0.44-0.62 0.89-0.92 1.34l14.93 10.17c0.3-0.46 0.62-0.89 0.93-1.37z"/>
 <path class="cls-4" transform="translate(-30.16 -39.98)" d="M220.65,257.94l-15.25-9.67c-.3.45-.59.92-.89,1.39l15.28,9.67c.27-.47.56-.93.86-1.39Z"/>
 <path class="cls-4" transform="translate(-30.16 -39.98)" d="m218.28 354.84-15.54 9.16c0.27 0.47 0.55 0.94 0.83 1.41l15.54-9.19c-0.28-0.45-0.56-0.94-0.83-1.38z"/>
 <path class="cls-4" transform="translate(-30.16 -39.98)" d="m210.54 278.88l-17.17-5.58c-0.18 0.52-0.35 1-0.51 1.57l17.14 5.57c0.2-0.52 0.39-1.04 0.54-1.56z"/>
 <path class="cls-4" transform="translate(-30.16 -39.98)" d="M214.93,268.07l-16.34-7.69c-.24.5-.45,1-.7,1.49l16.34,7.69Z"/>
 <path class="cls-4" transform="translate(-30.16 -39.98)" d="M211.53,276.12l-17-6.12c-.19.51-.37,1-.55,1.55l17,6.12Z"/>
 <path class="cls-4" transform="translate(-30.16 -39.98)" d="m212.6 273.44l-16.79-6.65c-0.2 0.51-0.41 1-0.61 1.52l16.8 6.69c0.21-0.57 0.39-1.07 0.6-1.56z"/>
 <path class="cls-4" transform="translate(-30.16 -39.98)" d="M213.72,270.76l-16.57-7.16c-.23.5-.45,1-.66,1.51L213,272.26Z"/>
 <path class="cls-4" transform="translate(-30.16 -39.98)" d="M266.31,395.31l-6.12,17c.51.19,1,.38,1.55.55l6.12-17Z"/>
 <path class="cls-4" transform="translate(-30.16 -39.98)" d="M255.67,390.57l-8.2,16.1,1.46.75,8.2-16.1Z"/>
 <path class="cls-4" transform="translate(-30.16 -39.98)" d="M253.12,389.18,244.42,405l1.44.79,8.7-15.82Z"/>
 <path class="cls-4" transform="translate(-30.16 -39.98)" d="M258.26,391.91l-7.69,16.34c.5.24,1,.45,1.49.7l7.69-16.35Z"/>
 <path class="cls-4" transform="translate(-30.16 -39.98)" d="M248.16,386.19l-9.68,15.24,1.39.9,9.67-15.25-1.38-.89Z"/>
 <path class="cls-4" transform="translate(-30.16 -39.98)" d="M261,393.12l-7.16,16.57c.5.22,1,.45,1.51.66l7.15-16.55Z"/>
 <path class="cls-4" transform="translate(-30.16 -39.98)" d="M250.61,387.75l-9.19,15.54c.45.28.94.56,1.42.83L252,388.58Z"/>
 <path class="cls-4" transform="translate(-30.16 -39.98)" d="M277.49,398.66l-3.94,17.63,1.61.35L279.1,399Z"/>
 <path class="cls-4" transform="translate(-30.16 -39.98)" d="M274.63,398l-4.47,17.49,1.59.4,4.47-17.48Z"/>
 <path class="cls-4" transform="translate(-30.16 -39.98)" d="m263.63 394.24-6.63 16.76c0.51 0.2 1 0.41 1.52 0.6l6.65-16.79c-0.55-0.16-1.05-0.37-1.54-0.57z"/>
 <path class="cls-4" transform="translate(-30.16 -39.98)" d="m271.86 397.14l-5 17.35c0.53 0.15 1.05 0.31 1.58 0.44l5-17.34c-0.53-0.13-1.06-0.28-1.58-0.45z"/>
 <path class="cls-4" transform="translate(-30.16 -39.98)" d="M245.7,384.53l-10.15,14.93c.44.32.89.63,1.34.93L247,385.46Z"/>
 <path class="cls-4" transform="translate(-30.16 -39.98)" d="m269.09 396.29l-5.59 17.18 1.56 0.5 5.59-17.17q-0.79-0.24-1.56-0.51z"/>
 <path class="cls-4" transform="translate(-30.16 -39.98)" d="M226.55,366.78l-13.91,11.5c.35.45.7.85,1.05,1.27L227.6,368Z"/>
 <path class="cls-4" transform="translate(-30.16 -39.98)" d="M228.43,369,214.9,381c.36.41.72.82,1.09,1.22l13.54-11.93Z"/>
 <path class="cls-4" transform="translate(-30.16 -39.98)" d="M219.8,357.34,204.55,367c.3.45.59.93.9,1.39l15.25-9.67A15.56,15.56,0,0,1,219.8,357.34Z"/>
 <path class="cls-4" transform="translate(-30.16 -39.98)" d="M224.72,364.5l-14.26,11.06c.33.45.66.89,1,1.3l14.27-11.06Z"/>
 <path class="cls-4" transform="translate(-30.16 -39.98)" d="m243.33 382.88l-10.62 14.6 1.34 1 10.62-14.61c-0.46-0.34-0.91-0.67-1.34-0.99z"/>
 <path class="cls-4" transform="translate(-30.16 -39.98)" d="m221.37 359.75-14.94 10.15l0.93 1.34 14.93-10.14c-0.29-0.44-0.62-0.88-0.92-1.35z"/>
 <path class="cls-4" transform="translate(-30.16 -39.98)" d="M223,362.17l-14.61,10.61,1,1.34L224,363.51Z"/>
 <path class="cls-4" transform="translate(-30.16 -39.98)" d="M241,381.09,230,395.35c.45.34.86.68,1.3,1l11.07-14.27c-.44-.33-.88-.66-1.31-1Z"/>
 <path class="cls-4" transform="translate(-30.16 -39.98)" d="M238.76,379.25l-11.5,13.92,1.26,1L240,380.31Z"/>
 <path class="cls-4" transform="translate(-30.16 -39.98)" d="M236.57,377.33l-11.93,13.54c.4.37.81.73,1.22,1.09l11.94-13.54-1.23-1.09Z"/>
 <path class="cls-4" transform="translate(-30.16 -39.98)" d="M230.36,371.2,217.2,383.56c.37.4.74.81,1.12,1.2l13.16-12.36c-.38-.39-.75-.79-1.12-1.2Z"/>
 <path class="cls-4" transform="translate(-30.16 -39.98)" d="m234.43 375.36l-12.37 13.17 1.21 1.11 12.35-13.15-1.19-1.13z"/>
 <path class="cls-4" transform="translate(-30.16 -39.98)" d="M298.51,197.54A110.79,110.79,0,1,0,409.3,308.32,110.78,110.78,0,0,0,298.51,197.54Zm0,219.93A109.13,109.13,0,1,1,407.64,308.34,109.13,109.13,0,0,1,298.51,417.47Z"/>
 <path class="cls-4" transform="translate(-30.16 -39.98)" d="M298.51,214a94.37,94.37,0,1,0,94.37,94.36A94.36,94.36,0,0,0,298.51,214Zm0,187.1a92.74,92.74,0,1,1,92.73-92.74,92.73,92.73,0,0,1-92.73,92.74Z"/>
 <g id="arrow">
  <path id="compass-arrow" class="cls-3" transform="translate(-30.16,-39.98)" d="m298.51 308.32 21-21-20.29-155.75a0.7 0.7 0 0 0 -0.77 -0.62 0.72 0.72 0 0 0 -0.62 0.62l-20.34 155.73z" style="fill:#c72026"/>
 </g>
 <circle class="cls-1" cx="268.35" cy="268.34" r="45.51"/>
 <circle class="cls-5" cx="268.35" cy="268.34" r="31.51"/>
 <circle class="cls-1" cx="268.35" cy="268.34" r="21.01"/>
 <path class="cls-5" transform="translate(-30.16 -39.98)" d="M481.07,484.31l-5.33-5.08.47-.48a7.6,7.6,0,0,0,4.8,1.52,5.86,5.86,0,0,0,4-1.64,3.74,3.74,0,0,0,1.24-2.49,2.74,2.74,0,0,0-.76-2.13,2.48,2.48,0,0,0-1.17-.68,5.5,5.5,0,0,0-2.14,0,34.08,34.08,0,0,0-3.85,1.15,15.78,15.78,0,0,1-6.26,1.15,6.06,6.06,0,0,1-3.69-1.79,6.24,6.24,0,0,1-1.84-4.89,7.77,7.77,0,0,1,2.46-5.29,9.33,9.33,0,0,1,1.55-1.25,14.58,14.58,0,0,1,2.21-1.08,3.39,3.39,0,0,0,1.14-.68,1.56,1.56,0,0,0,.4-.86,2.22,2.22,0,0,0-.16-1.25l.43-.45,5.9,5.9-.43.45a9.51,9.51,0,0,0-5.75-1.85,6.44,6.44,0,0,0-4.42,1.79,4.07,4.07,0,0,0-1.34,2.76,3.06,3.06,0,0,0,.89,2.4,3,3,0,0,0,1.34.78,5,5,0,0,0,1.88.09,18.5,18.5,0,0,0,3.34-.89,26.05,26.05,0,0,1,4.85-1.28,7.8,7.8,0,0,1,3.08.21,5.84,5.84,0,0,1,2.51,1.51,6,6,0,0,1,1.81,4.55,6.78,6.78,0,0,1-2.15,4.77,8.25,8.25,0,0,1-1.65,1.29,10.39,10.39,0,0,1-1.84.81,4.22,4.22,0,0,0-1.46.71.88.88,0,0,0-.29.66,2.93,2.93,0,0,0,.57,1.21Z"/>
 <path class="cls-5" transform="translate(-30.16 -39.98)" d="M471.37,491.51,465,485.15l-.31.31a3.49,3.49,0,0,0-1.23,3.09,8.13,8.13,0,0,0,1.91,3.6l-.45.45-8.18-8.18.45-.45a8.7,8.7,0,0,0,2.76,1.61,3.54,3.54,0,0,0,2.18.12,5.46,5.46,0,0,0,2-1.42l-4.4-4.4a8.79,8.79,0,0,0-1.69-1.47,1.36,1.36,0,0,0-.89-.06,2.84,2.84,0,0,0-1.15.78l-.93.93a8,8,0,0,0-2.5,4.53,7.91,7.91,0,0,0,1.19,5l-.42.45-4.27-5.67,13.51-13.5.45.42-.52.52a3.08,3.08,0,0,0-.85,1.34,1.5,1.5,0,0,0,.09,1,6.73,6.73,0,0,0,1.34,1.58L473.39,486a11.33,11.33,0,0,0,1.34,1.25,1.57,1.57,0,0,0,1,.19,2.75,2.75,0,0,0,1.52-.89l.52-.52.45.45-13.08,13.07-4.62-4.62.45-.44a8.29,8.29,0,0,0,3.37,1.49,5,5,0,0,0,2.79-.63,13.24,13.24,0,0,0,2.63-2.21Z"/>
 <path class="cls-5" transform="translate(-30.16 -39.98)" d="M127.22,494.55l5.12-5.37.47.48a7.62,7.62,0,0,0-1.52,4.83,6,6,0,0,0,1.65,4.05,3.81,3.81,0,0,0,2.51,1.24,2.73,2.73,0,0,0,2.15-.77,2.44,2.44,0,0,0,.68-1.17,5.61,5.61,0,0,0,0-2.16,35.26,35.26,0,0,0-1.16-3.88,15.94,15.94,0,0,1-1.16-6.28,6.2,6.2,0,0,1,1.79-3.72,6.31,6.31,0,0,1,4.92-1.85,7.81,7.81,0,0,1,5.33,2.48,9,9,0,0,1,1.25,1.56,15.39,15.39,0,0,1,1.1,2.23,3.34,3.34,0,0,0,.68,1.15,1.64,1.64,0,0,0,.87.41,2.33,2.33,0,0,0,1.25-.17l.45.45L147.66,494l-.45-.44a9.68,9.68,0,0,0,1.86-5.79,6.57,6.57,0,0,0-1.82-4.48,4.23,4.23,0,0,0-2.79-1.34,3,3,0,0,0-3.2,2.24,4.82,4.82,0,0,0-.09,1.89,18.7,18.7,0,0,0,.89,3.36,25.71,25.71,0,0,1,1.29,4.89,7.91,7.91,0,0,1-.21,3.1,5.69,5.69,0,0,1-1.52,2.52,6.07,6.07,0,0,1-4.58,1.83,6.86,6.86,0,0,1-4.81-2.16,8.48,8.48,0,0,1-1.3-1.68,10.08,10.08,0,0,1-.81-1.84,4.48,4.48,0,0,0-.72-1.47.88.88,0,0,0-.66-.29,3.09,3.09,0,0,0-1.22.56Z"/>
 <path class="cls-5" transform="translate(-30.16 -39.98)" d="M102,468.57l.44-.45a2.17,2.17,0,0,0,1,.5,2.45,2.45,0,0,0,1.17-.11c.14,0,1-.4,2.53-1.06L125,459.4l.45.45-6.26,14L133.63,468l.45.45-7.67,18a19.18,19.18,0,0,0-1.24,3.45,2,2,0,0,0,.58,1.53l-.45.44-6.82-6.82.44-.45a2.73,2.73,0,0,0,1.34.85,1,1,0,0,0,.84-.29,9.22,9.22,0,0,0,1.3-2.44L127,472.05l-8.43,3.49-1,2.32a18,18,0,0,0-1,2.65,2.54,2.54,0,0,0,0,1.34,3.47,3.47,0,0,0,.89,1.31l-.44.45L109.34,476l.45-.44a6,6,0,0,0,1.28,1,1.13,1.13,0,0,0,.65.11,1.08,1.08,0,0,0,.58-.3,11.6,11.6,0,0,0,1.11-2.16L118,463.92l-9.31,4.18a20,20,0,0,0-1.93.92,4.39,4.39,0,0,0-.8.62,1.29,1.29,0,0,0-.44,1.07,2.94,2.94,0,0,0,.94,1.54l-.44.45Z"/>
 <path class="cls-5" transform="translate(-30.16 -39.98)" d="M467.21,119.69l-2,17.52,6.77-6.77a4.44,4.44,0,0,0,1.5-2.32,3.16,3.16,0,0,0-1.21-2.52l.44-.44,5.21,5.2-.45.44a5.83,5.83,0,0,0-1.67-1,1.9,1.9,0,0,0-1.2.13,6.37,6.37,0,0,0-1.76,1.38l-13.11,13.1-.39-.39,2.46-23.74-10,10a3.15,3.15,0,0,0-1.22,2.45,3.29,3.29,0,0,0,.95,1.9l.37.37-.45.43-5.58-5.58.45-.45a3.55,3.55,0,0,0,2.34,1.28A3.64,3.64,0,0,0,451,129.4l11.11-11.1.08-.76a4.48,4.48,0,0,0-.06-1.71,3.91,3.91,0,0,0-.89-1.31l.44-.45Z"/>
 <path class="cls-5" transform="translate(-30.16 -39.98)" d="M484,138.31l-6.41,6.41.31.31a3.52,3.52,0,0,0,3.13,1.23,8,8,0,0,0,3.63-1.91l.45.44L476.9,153l-.45-.45a8.58,8.58,0,0,0,1.62-2.79,3.49,3.49,0,0,0,.11-2.19,5.58,5.58,0,0,0-1.42-2L472.33,150a8.57,8.57,0,0,0-1.48,1.7,1.39,1.39,0,0,0-.07.9,2.77,2.77,0,0,0,.79,1.15l.94.94a8,8,0,0,0,4.56,2.52,8.13,8.13,0,0,0,5-1.2l.45.44-5.75,4.27-13.6-13.6.45-.45.52.52a3.07,3.07,0,0,0,1.35.86,1.5,1.5,0,0,0,1-.09,6.77,6.77,0,0,0,1.58-1.34l10.36-10.36a11.61,11.61,0,0,0,1.25-1.37,1.54,1.54,0,0,0,.2-1,2.94,2.94,0,0,0-.89-1.54l-.52-.51.44-.45,13.17,13.17-4.65,4.65-.45-.45a8,8,0,0,0,1.5-3.39,5,5,0,0,0-.63-2.81,13.23,13.23,0,0,0-2.24-2.65Z"/>
 <path class="cls-5" transform="translate(-30.16 -39.98)" d="M105.76,144.64l17.52,2-6.79-6.78a4.61,4.61,0,0,0-2.32-1.51,3.24,3.24,0,0,0-2.52,1.22l-.45-.44,5.2-5.2.45.44a5.74,5.74,0,0,0-1,1.68,1.81,1.81,0,0,0,.13,1.19,6.41,6.41,0,0,0,1.38,1.77l13.1,13.1-.4.39L106.31,150l10,10a3.15,3.15,0,0,0,2.45,1.22,3.23,3.23,0,0,0,1.9-.95l.37-.37.45.45L115.9,166l-.44-.45a3.57,3.57,0,0,0,1.27-2.34,3.67,3.67,0,0,0-1.26-2.29l-11.11-11.1-.75-.09a4.47,4.47,0,0,0-1.71.06,3.91,3.91,0,0,0-1.34.9l-.45-.45Z"/>
 <path class="cls-5" transform="translate(-30.16 -39.98)" d="M140.55,109.82l.45.45a2,2,0,0,0-.5,1,2.48,2.48,0,0,0,.1,1.18c.05.14.4,1,1.07,2.52l8.05,17.92-.45.45-14-6.26,5.83,14.45-.45.44-18-7.67a20,20,0,0,0-3.45-1.24,2,2,0,0,0-1.53.58l-.44-.45,6.82-6.82.44.45a2.67,2.67,0,0,0-.84,1.34,1,1,0,0,0,.29.83,9.22,9.22,0,0,0,2.44,1.3l10.76,4.53-3.5-8.44-2.32-1a17.64,17.64,0,0,0-2.65-1,2.54,2.54,0,0,0-1.34,0,3.46,3.46,0,0,0-1.3.9l-.45-.45,7.6-7.63.45.45a6,6,0,0,0-1,1.28,1,1,0,0,0-.11.65,1,1,0,0,0,.29.58,11.6,11.6,0,0,0,2.16,1.11l10.33,4.63-4.17-9.3c-.28-.66-.59-1.3-.93-1.93a4,4,0,0,0-.62-.8,1.31,1.31,0,0,0-1.07-.45,3.09,3.09,0,0,0-1.54.95l-.44-.45Z"/>
 <path class="cls-5" transform="translate(-30.16 -39.98)" d="M290.19,566.33l-.24-9.89h.9a10.13,10.13,0,0,0,3.13,6,7.86,7.86,0,0,0,5.37,2.27,5.05,5.05,0,0,0,3.53-1.19,3.66,3.66,0,0,0,1.3-2.75,3.27,3.27,0,0,0-.45-1.75,7.44,7.44,0,0,0-2-2A47.18,47.18,0,0,0,297,554.4q-5.2-2.56-7-4.83a8.16,8.16,0,0,1-1.79-5.21A8.43,8.43,0,0,1,291,538a10.41,10.41,0,0,1,7.36-2.68,11.81,11.81,0,0,1,2.65.28,20.27,20.27,0,0,1,3.13,1.07,4.71,4.71,0,0,0,1.73.45,2.18,2.18,0,0,0,1.2-.45,3.09,3.09,0,0,0,1-1.34H309V546.5h-.81a12.86,12.86,0,0,0-3.71-7.22,8.7,8.7,0,0,0-5.92-2.48,5.61,5.61,0,0,0-3.91,1.34,4,4,0,0,0-.89,5.15,6.57,6.57,0,0,0,1.69,1.87,25.94,25.94,0,0,0,4,2.31,34.43,34.43,0,0,1,5.81,3.39A10.38,10.38,0,0,1,308,554a7.74,7.74,0,0,1,.95,3.8,8.08,8.08,0,0,1-2.61,6.05,9.11,9.11,0,0,1-6.56,2.49A11,11,0,0,1,297,566a14.16,14.16,0,0,1-2.51-1,5.68,5.68,0,0,0-2.06-.71,1.2,1.2,0,0,0-.9.34,4,4,0,0,0-.61,1.69Z"/>
 <path class="cls-5" transform="translate(-30.16 -39.98)" d="M553.79,306.15H541.72v.59a4.65,4.65,0,0,0,1.79,4.09,11.1,11.1,0,0,0,5.23,1.62v.83H533.18v-.83a11.63,11.63,0,0,0,4.16-1.11,4.71,4.71,0,0,0,2.18-2,7.44,7.44,0,0,0,.55-3.23h-8.36a11.85,11.85,0,0,0-3,.21,1.83,1.83,0,0,0-.9.77,3.74,3.74,0,0,0-.35,1.84v1.79A9.54,9.54,0,0,0,535.26,321v.81l-9.43-1.34V294.83h.81v1a4.06,4.06,0,0,0,.45,2.08,2,2,0,0,0,1,.89,9.05,9.05,0,0,0,2.76.24h19.52a15.71,15.71,0,0,0,2.47-.11,2.11,2.11,0,0,0,1.18-.8,3.78,3.78,0,0,0,.61-2.28v-1h.81v24.84h-8.76v-.83a11,11,0,0,0,4.62-1.79,6.59,6.59,0,0,0,2-3.25,17.23,17.23,0,0,0,.4-4.6Z"/>
 <path class="cls-5" transform="translate(-30.16 -39.98)" d="M41.22,286.31H42a2.8,2.8,0,0,0,.45,1.4,3.35,3.35,0,0,0,1.2,1c.18.09,1.31.54,3.39,1.37l24.49,9.31v.87l-19.13,7.36,19.13,8.09v.81l-24.23,9.76a25.23,25.23,0,0,0-4.41,2.08,2.66,2.66,0,0,0-.9,2h-.81V317.49H42a3.88,3.88,0,0,0,.45,2.07,1.34,1.34,0,0,0,1.06.52A12.77,12.77,0,0,0,47.05,319l14.4-5.81-11.24-4.66-3.13,1.22a24.3,24.3,0,0,0-3.45,1.56,3.41,3.41,0,0,0-1.24,1.26,4.67,4.67,0,0,0-.37,2.09h-.81V300.27H42a7.94,7.94,0,0,0,.24,2.17,1.39,1.39,0,0,0,.52.72,1.32,1.32,0,0,0,.82.26,15.45,15.45,0,0,0,3.08-1l14-5.41L48,292.2a25.8,25.8,0,0,0-2.68-.94,5.11,5.11,0,0,0-1.35-.18,1.7,1.7,0,0,0-1.4.61A3.93,3.93,0,0,0,42,294h-.81Z"/>
 <path class="cls-5" transform="translate(-30.16 -39.98)" d="M293.68,50.86l14.65,18.4V56.5c0-1.78-.25-3-.76-3.6a4.22,4.22,0,0,0-3.52-1.23v-.81h9.8v.81a7.64,7.64,0,0,0-2.53.62,2.56,2.56,0,0,0-1,1.25,8.49,8.49,0,0,0-.37,3V81.21h-.74L289.14,56.5V75.37c0,1.71.39,2.86,1.18,3.46a4.24,4.24,0,0,0,2.68.89h.7v.81H283.16v-.81a4.67,4.67,0,0,0,3.41-1,4.72,4.72,0,0,0,1-3.35V54.43l-.63-.79a5.84,5.84,0,0,0-1.66-1.55,5,5,0,0,0-2.08-.42v-.81Z"/>
 <path class="cls-2" transform="translate(-30.16 -39.98)" d="m405.94 625.83s-1.43-57.92 75.15-120.83c-21.09 17.65-63.09 52-122.16 64.14 22.74 28.65 47.01 56.69 47.01 56.69z"/>
 <path class="cls-2" transform="translate(-30.16 -39.98)" d="m191 626.36s1.43-57.92-75.14-120.88c21.11 17.7 61.07 51 122.15 63.19-22.75 28.65-47.01 57.69-47.01 57.69z"/>
 <path class="cls-2" transform="translate(-30.16 -39.98)" d="M405.94,568.3v57.53a8.44,8.44,0,0,1-8.43,8.44h-198a8.44,8.44,0,0,1-8.43-8.44V568.3a8.44,8.44,0,0,1,8.43-8.43h7.77q4.67,1.88,9.42,3.54,2.43.86,4.89,1.66,3.93,1.29,7.93,2.44,8.61,2.5,17.48,4.36c3.25.69,6.54,1.31,9.84,1.86a249.2,249.2,0,0,0,93.45-1.86Q359,570,367.5,567.51q4-1.15,7.88-2.44c1.63-.54,3.26-1.09,4.87-1.66q4.75-1.67,9.4-3.54h7.86A8.44,8.44,0,0,1,405.94,568.3Z"/>
 <path class="cls-1" transform="translate(-30.16 -39.98)" d="M399.93,567.92v57.74a4.51,4.51,0,0,1-4.51,4.51H201a4.51,4.51,0,0,1-4.52-4.51V567.92a4.51,4.51,0,0,1,4.52-4.51h15.66q2.43.86,4.89,1.66,3.93,1.29,7.93,2.44,8.61,2.5,17.48,4.36c3.25.69,6.54,1.31,9.84,1.86a249.2,249.2,0,0,0,93.45-1.86Q359,570,367.5,567.51q4-1.15,7.88-2.44c1.63-.54,3.26-1.09,4.87-1.66h15.17A4.51,4.51,0,0,1,399.93,567.92Z"/>
 <path class="cls-4" transform="translate(-30.16 -39.98)" d="M396,567.51v59.11H201.41V567.51h28.06q8.61,2.5,17.48,4.36c3.25.69,6.54,1.31,9.84,1.86a249.2,249.2,0,0,0,93.45-1.86Q359,570,367.5,567.51Z" style="fill:#f2f2f2"/>
 <text id="meter" x="219.90297" y="579.36444" style="fill:#ff0411;font-family:sans-serif;font-size:48px;letter-spacing:0px;line-height:1.25;word-spacing:0px" xml:space="preserve"><tspan x="219.90297" y="579.36444">360</tspan></text>
</svg>
