<?xml version="1.0" encoding="UTF-8" standalone="no"?>
<svg
   version="1.1"
   viewBox="0 0 172 172"
   id="svg1284"
   sodipodi:docname="wifi-normal.svg"
   inkscape:version="1.2-dev (9ee32be, 2021-06-19)"
   xmlns:inkscape="http://www.inkscape.org/namespaces/inkscape"
   xmlns:sodipodi="http://sodipodi.sourceforge.net/DTD/sodipodi-0.dtd"
   xmlns="http://www.w3.org/2000/svg"
   xmlns:svg="http://www.w3.org/2000/svg">
  <defs
     id="defs1288" />
  <sodipodi:namedview
     id="namedview1286"
     pagecolor="#ffffff"
     bordercolor="#666666"
     borderopacity="1.0"
     inkscape:pageshadow="2"
     inkscape:pageopacity="0.0"
     inkscape:pagecheckerboard="0"
     showgrid="false"
     inkscape:zoom="5.0755814"
     inkscape:cx="28.568156"
     inkscape:cy="88.364261"
     inkscape:window-width="1299"
     inkscape:window-height="1081"
     inkscape:window-x="0"
     inkscape:window-y="25"
     inkscape:window-maximized="0"
     inkscape:current-layer="g1280" />
  <g
     fill="none"
     fill-rule="nonzero"
     stroke="none"
     stroke-width="1"
     stroke-linecap="butt"
     stroke-linejoin="miter"
     stroke-miterlimit="10"
     stroke-dasharray="none"
     stroke-dashoffset="0"
     font-family="none"
     font-weight="none"
     font-size="none"
     text-anchor="none"
     style="mix-blend-mode:normal"
     id="g1282">
    <path
       d="M 0,172 V 0 h 172 v 172 z"
       fill="none"
       id="path1274" />
    <path
       d="M 86,172 C 38.50351,172 0,133.49649 0,86 v 0 C 0,38.50351 38.50351,0 86,0 v 0 c 47.49649,0 86,38.50351 86,86 v 0 c 0,47.49649 -38.50351,86 -86,86 z"
       fill="#ffffff"
       id="path1276" />
    <g
       fill="#000000"
       id="g1280">
      <path
         d="m 86.00046,28.36959 c -29.02896,0 -56.59332,11.12839 -77.61083,31.31973 l -2.30329,2.21566 17.72531,18.47639 2.32833,-2.21566 c 16.21065,-15.57224 37.47852,-24.1595 59.86048,-24.1595 22.38196,0 43.64983,8.58726 59.873,24.1595 l 2.31581,2.21566 17.73783,-18.47639 -2.31581,-2.22818 C 142.59378,39.48547 115.02941,28.36959 86.00046,28.36959 Z m 0,38.45491 c -19.07724,0 -37.19061,7.31044 -50.99783,20.57939 l -2.31581,2.21566 17.81294,18.56401 2.31581,-2.22818 c 9.03791,-8.69992 20.82975,-13.49427 33.18489,-13.49427 12.35514,0 24.14698,4.79435 33.18489,13.49427 l 2.31581,2.22818 17.81294,-18.56401 -2.30329,-2.21566 C 123.19107,74.13494 105.07771,66.8245 86.00046,66.8245 Z m 0,38.45492 c -9.11301,0 -17.77538,3.49249 -24.38482,9.85157 l -2.30329,2.21566 26.68811,27.8022 26.68811,-27.8022 -2.30329,-2.21566 c -6.60944,-6.35908 -15.27181,-9.85157 -24.38482,-9.85157 z"
         id="path1278"
         style="fill:#857D81;fill-opacity:1" />
    </g>
  </g>
</svg>
