

<svg
   viewBox="0 0 29.622 45.708668"
   version="1.1"
   id="svg5"
   width="100%"
   height="100%"
   inkscape:version="1.1.2 (b8e25be833, 2022-02-05)"
   sodipodi:docname="flowmeter.svg"
   xmlns:inkscape="http://www.inkscape.org/namespaces/inkscape"
   xmlns:sodipodi="http://sodipodi.sourceforge.net/DTD/sodipodi-0.dtd"
   xmlns="http://www.w3.org/2000/svg"
   xmlns:svg="http://www.w3.org/2000/svg">
  <sodipodi:namedview
     id="namedview7"
     pagecolor="#ffffff"
     bordercolor="#666666"
     borderopacity="1.0"
     inkscape:pageshadow="2"
     inkscape:pageopacity="0.0"
     inkscape:pagecheckerboard="0"
     inkscape:document-units="mm"
     showgrid="false"
     inkscape:zoom="0.68662172"
     inkscape:cx="35.681948"
     inkscape:cy="294.19402"
     inkscape:window-width="1366"
     inkscape:window-height="705"
     inkscape:window-x="1358"
     inkscape:window-y="-8"
     inkscape:window-maximized="1"
     inkscape:current-layer="layer1" />
  <defs
     id="defs2" />
  <g
     inkscape:label="Layer 1"
     inkscape:groupmode="layer"
     id="layer1"
     transform="translate(-98.23775,-96.415173)">
    <path
       style="fill:#154773;fill-opacity:1;stroke:#154773;stroke-width:0.412;stroke-miterlimit:4;stroke-dasharray:none;stroke-opacity:1"
       d="m 98.90398,141.42797 c -0.44817,-0.47707 -0.46023,-0.63408 -0.46023,-5.99561 0,-5.48137 0.002,-5.50774 0.4899,-5.96594 0.4739,-0.44521 0.65006,-0.46023 5.3975,-0.46023 h 4.9076 v -4.84556 -4.84557 l -1.05833,-0.80709 c -1.00673,-0.76774 -1.05833,-0.85585 -1.05833,-1.80695 0,-0.94633 -0.068,-1.06469 -1.27,-2.21123 -1.30881,-1.24839 -1.6375,-2.07818 -0.89959,-2.27102 0.2279,-0.0596 0.14645,-0.10625 -0.21166,-0.12136 -0.42826,-0.0181 -0.58209,-0.13397 -0.58209,-0.43861 0,-0.36718 -0.17376,-0.4211 -1.53458,-0.47625 l -1.53458,-0.0622 v -1.5875 -1.5875 l 1.53458,-0.0622 c 1.36082,-0.0552 1.53458,-0.10907 1.53458,-0.47625 0,-0.30464 0.15383,-0.42055 0.58209,-0.43861 0.35811,-0.0151 0.43956,-0.0618 0.21166,-0.12136 -0.32868,-0.0859 -0.37041,-0.40508 -0.37041,-2.83294 v -2.73615 h -0.84667 c -0.81924,0 -0.84667,-0.023 -0.84667,-0.7089 0,-0.38989 0.0616,-1.437642 0.1369,-2.328331 l 0.13689,-1.619436 h 9.91727 9.91728 v 2.328333 2.328334 h -0.84667 -0.84667 v 6.00028 6.00028 l -1.27,1.21137 c -1.20913,1.15332 -1.27,1.26029 -1.27,2.23196 0,0.97597 -0.0462,1.05585 -1.05833,1.82767 l -1.05833,0.80709 v 4.82484 4.82484 h 4.90966 4.90967 l 0.59367,0.56877 0.59366,0.56877 v 5.32935 c 0,5.07106 -0.0213,5.35638 -0.43869,5.88707 l -0.4387,0.55771 H 113.07029 99.36421 Z m 27.47977,-5.96595 v -6.24416 h -4.73692 c -4.64644,0 -4.75978,0.0105 -5.93357,0.54784 -0.92098,0.42164 -1.53478,0.54784 -2.66451,0.54784 -1.12972,0 -1.74352,-0.1262 -2.66451,-0.54784 -1.17627,-0.53851 -1.27911,-0.54784 -6.0394,-0.54784 h -4.84275 v 1.48166 1.48167 h 1.79916 1.79917 v 3.27227 3.27228 l -1.74625,0.0615 -1.74625,0.0615 -0.0626,1.42875 -0.0626,1.42875 h 13.45051 13.4505 z m -27.3939,2.63779 c -0.31555,-0.72747 -0.31792,-0.71965 -0.32614,1.07696 -0.005,1.17495 0.0845,1.90306 0.25629,2.07575 0.41556,0.41777 0.47402,-2.22096 0.0699,-3.15271 z m 28.24057,-2.53195 c 0,-4.58756 -0.0503,-5.49326 -0.3175,-5.715 -0.28095,-0.23317 -0.3175,0.42477 -0.3175,5.715 0,5.29022 0.0366,5.94816 0.3175,5.715 0.26718,-0.22174 0.3175,-1.12745 0.3175,-5.715 z m -24.34167,-0.10584 v -3.06916 h -1.67582 -1.67583 l -0.3868,1.00541 c -0.47351,1.23083 -0.4775,3.24064 -0.009,4.33917 l 0.3388,0.79375 h 1.70413 1.70413 z m -3.59833,-4.49521 c 0,-1.20041 -0.0408,-1.34359 -0.3175,-1.11395 -0.23866,0.19807 -0.31544,0.71695 -0.30921,2.08966 0.008,1.7884 0.0147,1.81144 0.3175,1.11395 0.17006,-0.39172 0.30921,-1.33207 0.30921,-2.08966 z m 16.05844,-1.35384 1.08656,-0.45155 v -4.84011 -4.84012 h -3.4925 -3.4925 v 4.73659 c 0,3.72694 0.0611,4.78732 0.28683,4.97462 1.10747,0.91913 3.90707,1.12894 5.61161,0.42057 z m 2.03906,-11.08907 0.84667,-0.72974 -5.27403,-0.003 c -2.90072,-0.002 -5.23434,0.0362 -5.18583,0.0843 0.0485,0.0481 0.45847,0.38149 0.91105,0.74083 l 0.82285,0.65335 3.51631,-0.008 3.51631,-0.008 z m 1.16417,-2.00604 v -1.05833 h -5.60917 -5.60917 v 1.05833 1.05833 h 5.60917 5.60917 z m 1.44107,-2.21759 0.99309,-0.9476 -7.92865,-0.005 -7.92865,-0.005 0.9348,0.9525 0.93481,0.9525 h 6.00075 6.00075 z m 1.09893,-7.09574 v -5.92667 h -8.14917 -8.14917 v 2.51735 c 0,2.04239 0.0599,2.54035 0.3175,2.63919 0.47318,0.18158 0.47318,6.06179 0,6.06179 -0.17462,0 -0.3175,0.14288 -0.3175,0.3175 0,0.27673 1.04658,0.3175 8.14917,0.3175 h 8.14917 z m -15.93062,1.21708 c -0.0428,-0.61119 -0.0777,-0.11112 -0.0777,1.11125 0,1.22238 0.035,1.72244 0.0777,1.11125 0.0428,-0.61119 0.0428,-1.61131 0,-2.2225 z m -0.36772,2.38125 c 0,-0.34925 -0.0952,-0.635 -0.21166,-0.635 -0.23544,0 -0.29214,0.9073 -0.0706,1.12889 0.23914,0.23913 0.28222,0.16373 0.28222,-0.49389 z m -0.635,-1.37583 v -1.37584 h -1.27 -1.27 v 1.37584 1.37583 h 1.27 1.27 z m 0.54788,-0.26351 c -0.23122,-0.23123 -0.38978,0.13649 -0.22377,0.51896 0.15741,0.36266 0.16882,0.36233 0.25653,-0.007 0.0505,-0.21284 0.0357,-0.44303 -0.0328,-0.51153 z m 0.0871,-0.90066 c 0,-0.34925 -0.0952,-0.635 -0.21166,-0.635 -0.11642,0 -0.21167,0.28575 -0.21167,0.635 0,0.34925 0.0952,0.635 0.21167,0.635 0.11641,0 0.21166,-0.28575 0.21166,-0.635 z m 17.99167,-8.255 v -1.058333 h -9.8425 -9.8425 v 1.058333 1.05833 h 9.8425 9.8425 z m -19.47333,-0.3175 c 0,-0.174625 0.0952,-0.3175 0.21166,-0.3175 0.11642,0 0.21167,0.142875 0.21167,0.3175 0,0.174625 -0.0952,0.3175 -0.21167,0.3175 -0.11641,0 -0.21166,-0.142875 -0.21166,-0.3175 z m 1.27,-1.905 c 0,-0.917222 -0.0235,-0.9525 -0.635,-0.9525 -0.61148,0 -0.635,0.03528 -0.635,0.9525 0,0.917223 0.0235,0.9525 0.635,0.9525 0.61148,0 0.635,-0.03528 0.635,-0.9525 z m 2.54,0 v -0.9525 h -1.16417 -1.16417 v 0.9525 0.9525 h 1.16417 1.16417 z m 4.02166,0 v -0.9525 h -1.905 -1.905 v 0.9525 0.9525 h 1.905 1.905 z m 3.59834,0 v -0.9525 h -1.69334 -1.69333 v 0.9525 0.9525 h 1.69333 1.69334 z m 3.81,0 v -0.9525 h -1.79917 -1.79917 v 0.9525 0.9525 h 1.79917 1.79917 z m 2.54,0 v -0.9525 h -1.16417 -1.16417 v 0.9525 0.9525 h 1.16417 1.16417 z m 1.69333,0 c 0,-0.94746 -0.004,-0.9525 -0.74083,-0.9525 -0.73692,0 -0.74084,0.005 -0.74084,0.9525 0,0.947461 0.004,0.9525 0.74084,0.9525 0.73691,0 0.74083,-0.005 0.74083,-0.9525 z"
       id="path872" />
  </g>
</svg>
