<?xml version="1.0" encoding="UTF-8" standalone="no"?>
<!-- Created with Inkscape (http://www.inkscape.org/) -->

<svg
   version="1.1"
   id="svg824"
   width="274.02783"
   height="151.92865"
   viewBox="0 0 274.02783 151.92865"
   sodipodi:docname="fuel-tank.svg"
   inkscape:version="1.3.2 (091e20e, 2023-11-25)"
   xmlns:inkscape="http://www.inkscape.org/namespaces/inkscape"
   xmlns:sodipodi="http://sodipodi.sourceforge.net/DTD/sodipodi-0.dtd"
   xmlns="http://www.w3.org/2000/svg"
   xmlns:svg="http://www.w3.org/2000/svg">
  <defs
     id="defs828" />
  <sodipodi:namedview
     id="namedview826"
     pagecolor="#ffffff"
     bordercolor="#666666"
     borderopacity="1.0"
     inkscape:pageshadow="2"
     inkscape:pageopacity="0.0"
     inkscape:pagecheckerboard="0"
     showgrid="false"
     inkscape:zoom="2.8920424"
     inkscape:cx="102.5227"
     inkscape:cy="69.328168"
     inkscape:window-width="2432"
     inkscape:window-height="1282"
     inkscape:window-x="0"
     inkscape:window-y="25"
     inkscape:window-maximized="0"
     inkscape:current-layer="g830"
     inkscape:showpageshadow="2"
     inkscape:deskcolor="#d1d1d1" />
  <g
     inkscape:groupmode="layer"
     inkscape:label="Image"
     id="g830"
     transform="translate(22.38119,-200.87001)">
    <rect
       style="fill:#aec1d0;fill-opacity:1;stroke-width:7.55906;stroke-opacity:0"
       id="rect9"
       width="41.666058"
       height="6.9155278"
       x="133.56396"
       y="338.83481"
       ry="0.086444102" />
    <rect
       style="fill:#aec1d0;fill-opacity:1;stroke-width:7.55906;stroke-opacity:0"
       id="rect7"
       width="41.666058"
       height="6.9155278"
       x="59.567814"
       y="339.35349"
       ry="0.086444102" />
    <rect
       style="display:inline;fill:#aec1d0;fill-opacity:1;stroke-width:7.46971;stroke-opacity:0"
       id="rect1"
       width="116.52664"
       height="109.73604"
       x="58.876263"
       y="229.72356"
       ry="2.0259006"
       inkscape:label="rect1" />
    <rect
       style="display:inline;fill:#ffffff;fill-opacity:1;stroke-width:7.46971;stroke-opacity:0"
       id="level-indicator"
       width="116.52664"
       height="109.73604"
       x="58.876263"
       y="229.72356"
       ry="2.0259006"
       inkscape:label="level-indicator" />
    <path
       style="fill:#154773;fill-opacity:1"
       d="m 47.837564,352.13198 c -0.366667,-0.36666 -0.666667,-3.29166 -0.666667,-6.5 v -5.83333 h -13 -13 v 5.625 5.625 l -3.25,-0.62563 c -1.7875,-0.3441 -6.465097,-2.20151 -10.3946603,-4.12757 -12.673905,-6.21207 -21.5102627,-18.02621 -26.9438367,-36.02369 -3.720274,-12.32256 -3.962919,-29.85121 -0.586513,-42.36955 5.178244,-19.19881 14.1301387,-31.53315 27.9403587,-38.49753 12.5257383,-6.31664 8.7925753,-6.10603 108.2346643,-6.10603 83.43061,0 90.99953,0.13798 96.89482,1.76641 18.87684,5.21425 30.65715,18.61254 36.25425,41.23359 3.09761,12.51918 3.10292,32.52166 0.0117,43.87816 -5.12247,18.81861 -13.94009,30.78618 -27.33894,37.10534 -4.02698,1.8992 -9.23428,3.74987 -11.57178,4.1126 l -4.25,0.65952 v -6.12781 -6.12781 h -13 -13 v 6.5 6.5 h -26 -26 v -6.5 -6.5 h -13.5 -13.5 v 6.5 6.5 H 74.837617 c -14.483337,0 -26.633337,-0.3 -27.000003,-0.66667 z m 47.131062,-13.08333 0.29771,-6.25 19.702294,-0.002 19.70228,-0.002 v 6.25183 6.25182 l 19.14638,0.27123 19.14637,0.27123 0.8413,-7.27123 c 1.32438,-11.44609 0.47585,-107.07368 -0.95852,-108.02252 -0.64654,-0.42769 -26.15053,-0.65854 -56.67553,-0.51299 l -55.500013,0.26463 -0.279025,13.25 -0.279025,13.25 h 6.529025 c 5.862355,0 6.529025,0.20421 6.529025,2 0,1.79487 -0.66667,2 -6.5,2 -6.266667,0 -6.5,0.0897 -6.5,2.5 0,2.41025 0.233333,2.5 6.5,2.5 5.01619,0 6.5,0.33152 6.5,1.45228 0,1.08304 -1.58905,1.52798 -6.25,1.75 -5.920609,0.28203 -6.25,0.42948 -6.25,2.79772 0,2.36824 0.329391,2.51569 6.25,2.79772 4.55884,0.21716 6.25,0.67777 6.25,1.70228 0,1.02451 -1.69116,1.48512 -6.25,1.70228 -5.920609,0.28203 -6.25,0.42948 -6.25,2.79772 0,2.36824 0.329391,2.51569 6.25,2.79772 4.66095,0.22202 6.25,0.66695 6.25,1.75 0,1.10834 -1.42095,1.45228 -6,1.45228 -5.733333,0 -6,0.11111 -6,2.5 0,2.38889 0.266667,2.5 6,2.5 5.33333,0 6,0.22222 6,2 0,1.77778 -0.66667,2 -6,2 -5.733333,0 -6,0.11111 -6,2.5 0,2.38889 0.266667,2.5 6,2.5 5.33333,0 6,0.22222 6,2 0,1.77778 -0.66667,2 -6,2 -5.733333,0 -6,0.11111 -6,2.5 0,2.38889 0.266667,2.5 6,2.5 4.66667,0 6,0.33333 6,1.5 0,1.16667 -1.33333,1.5 -6,1.5 h -6 v 3 3 h 6 c 4.66667,0 6,0.33333 6,1.5 0,1.16667 -1.33333,1.5 -6,1.5 h -6 v 3 3 h 6 c 4.66667,0 6,0.33333 6,1.5 0,1.16667 -1.33333,1.5 -6,1.5 -5.733333,0 -6,0.11111 -6,2.5 0,2.38889 0.266667,2.5 6,2.5 5.33333,0 6,0.22222 6,2 0,1.77778 -0.66667,2 -6,2 h -6 v 3.02418 3.02418 l 16.75,-0.27418 16.750009,-0.27418 z m -37.797729,-51.75 v -57.5 l -0.110497,3.12939 c -3.246276,-34.24281 12.237042,86.65514 -0.227454,105.34039 -0.104118,0.15608 -1.951819,-1.69592 -2.197997,-2.86407 -0.162028,-0.76885 1.26391,-1.04547 1.176748,-0.95107 -6.167867,6.67976 -30.429936,6.12846 -42.649043,3.25342 -0.629629,-0.14815 2.226665,-1.04161 3.320291,0.95966 0.911715,1.66839 0.160263,6.3367 -0.757934,5.88066 C 13.20091,343.29338 -4.6276609,328.46487 -0.63435642,332.7364 14.846311,349.29563 -38.122832,308.51193 -13.517054,270.01746 c 4.9155217,-7.69008 -2.157838,26.18206 -0.410479,34.28123 1.937121,8.97874 8.2339996,21.66153 13.60625771,27.40491 4.48074199,4.79028 21.53057229,-15.49667 14.19436629,8.72623 -0.13478,0.44502 3.166063,3.42183 2.772464,1.66795 l -1.974658,-8.79909 19.75,-0.27114 19.75,-0.27114 2.766211,4.83915 c 1.324976,2.31789 0.109138,5.96913 -0.173173,7.22673 -0.08235,0.36685 -0.342305,-0.0236 -0.117789,-0.0236 0.288613,0 0.524751,-25.875 0.524751,-57.5 z m 148.262683,47.92216 c 10.16075,-5.14884 2.56363,-29.61791 6.29122,-44.61988 2.23095,-8.9786 0.53227,7.53452 -1.67028,-2.40464 -1.56149,-7.04619 4.34746,-24.8498 0.73158,-30.23086 -3.4134,-5.07974 -2.69192,-19.091 -0.2758,-24.6196 1.32304,-3.02738 6.78564,0.84648 3.91061,-0.0109 l -2.25,-0.67102 0.005,43.81739 c 0.004,45.6449 0.6843,66.31739 2.18103,66.31739 0.48425,0 -11.51869,-6.26269 -8.92336,-7.57784 z m 0.36193,-6.06259 c 0.36449,-1.45224 0.24973,-3.81474 -0.25503,-5.25 -0.91713,-2.60785 -0.9253,-2.60957 -12.39365,-2.60957 h -11.47592 l -0.30226,5.25 -0.30226,5.25 h 12.03321 12.03321 z m -0.6246,-27.89131 v -12.53173 l -11.75,0.28173 -11.75,0.28174 -0.28078,12.25 -0.28078,12.25 h 12.03078 12.03078 z m 0,-31.96826 v -12.5 h -12 -12 v 12.5 12.5 h 12 12 z m 1,-28.92041 v -9.4204 l -6.25,-0.65306 c -3.4375,-0.35918 -8.95,-0.50749 -12.25,-0.32959 l -6,0.32346 -0.28621,9.75 -0.28621,9.75 h 12.53621 12.53621 z M 71.118817,212.98025 c 1.27011,-4.42864 3.26861,-7.11756 7.05208,-9.4884 3.386419,-2.12203 4.549099,-2.203 35.827513,-2.4949 31.22993,-0.29144 32.47636,-0.22962 36.71229,1.82096 4.21129,2.03865 7.46887,5.96033 8.91358,10.73074 l 0.68141,2.25 H 115.3081 70.310507 Z"
       id="path1040"
       sodipodi:nodetypes="sscccccsssscssscsscccccccccccccccsssccccccccssscccssssssssssssssssssssssssssscccssscccssssssscccccccccsssssssssssscccsssscsscsssccssscscccccscccccccccccccccccccsssccccccssssscccss" />
    <rect
       style="fill:#aec1d0;fill-opacity:1;stroke-width:7.55906;stroke-opacity:0"
       id="rect3"
       width="0.1728882"
       height="1.0373292"
       x="79.449959"
       y="331.57349"
       ry="0.086444102" />
    <path
       style="fill:#aec1d0;fill-opacity:1;stroke-width:7.55906;stroke-opacity:0"
       d="m 60.950921,341.08234 v 4.49509"
       id="path5" />
  </g>
</svg>
